<svg id="Camada_1" data-name="Camada 1" xmlns="http://www.w3.org/2000/svg" viewBox="0 0 1067 481"><defs><style>.cls-1{opacity:.25}.cls-2,.cls-4{opacity:.55}.cls-3,.cls-4,.cls-7{fill:none}.cls-3,.cls-4,.cls-9{stroke:#333}.cls-3,.cls-4,.cls-7,.cls-9{stroke-miterlimit:10}.cls-5{fill:#f9f9f9}.cls-7{stroke:#282827}.cls-9{fill:#fcfcfc}</style></defs><g class="cls-1"><g class="cls-2"><path class="cls-3" d="M502.77 304.91h9.43v9.43h-9.43zm0 18.87h9.43v9.43h-9.43zm0 18.87h9.43v9.43h-9.43zm0 18.87h9.43v9.43h-9.43zm0 18.86h9.43v9.43h-9.43zm0 18.87h9.43v9.43h-9.43zm0-169.81h9.43v9.43h-9.43zm0 18.87h9.43v9.43h-9.43zm0 18.87h9.43v9.43h-9.43zm0 18.86h9.43v9.43h-9.43zm0 130.79h9.43v9.43h-9.43zm0 18.87h9.43v9.43h-9.43zm-24.45-130.79h9.43v9.43h-9.43zm0 18.87h9.43v9.43h-9.43zm0 18.87h9.43v9.43h-9.43zm0 18.87h9.43v9.43h-9.43zm0 18.86h9.43v9.43h-9.43zm0 18.87h9.43v9.43h-9.43zm0-169.81h9.43v9.43h-9.43zm0 18.87h9.43v9.43h-9.43zm0 18.87h9.43v9.43h-9.43zm0 18.86h9.43v9.43h-9.43zm0 130.79h9.43v9.43h-9.43zm0 18.87h9.43v9.43h-9.43z"/><path class="cls-3" d="M466.21 214.76h58.1v265.6h-58.1z"/></g><path class="cls-4" d="M723.07 269.55v-18.27h-14.94v-16.59h-29.88v16.59h-14.94v18.27h-8.3v210.81h76.36V269.55h-8.3z"/><g class="cls-2"><path class="cls-3" d="M524.98 384.08h129.48v96.28H524.98z"/><path class="cls-3" d="M546 231.36h86.32v152.72H546z"/><path class="cls-3" d="M524.98 384.08h129.48v96.28H524.98zm-.32 17.84h128.99m-128.99 19.92h128.99m-128.99 19.92h128.99m-128.99 19.92h128.99m-98.24-220.36V382.7m9.49-141.38V382.7m9.48-141.38V382.7m9.49-141.38V382.7m9.48-141.38V382.7m9.49-141.38V382.7m9.49-141.38V382.7m9.48-141.38V382.7"/></g><path class="cls-4" d="M666.63 279.5h51.46v11.62h-51.46zm0 22.3h51.46v11.62h-51.46zm0 44.58h51.46V358h-51.46zm0 22.29h51.46v11.62h-51.46zm0 44.58h51.46v11.62h-51.46zm0 22.29h51.46v11.62h-51.46z"/></g><g class="cls-1"><g class="cls-2"><g class="cls-2"><path class="cls-3" d="M174.63 303.67h9.43v9.43h-9.43zm0 18.86h9.43v9.43h-9.43zm0 18.87h9.43v9.43h-9.43zm0 18.87h9.43v9.43h-9.43zm0 18.87h9.43v9.43h-9.43zm0 18.87h9.43v9.43h-9.43zm0-169.81h9.43v9.43h-9.43zm0 18.86h9.43v9.43h-9.43zm0 18.87h9.43v9.43h-9.43zm0 18.87h9.43v9.43h-9.43zm0 130.79h9.43v9.43h-9.43zm0 18.86h9.43v9.43h-9.43zm-24.44-130.78h9.43v9.43h-9.43zm0 18.86h9.43v9.43h-9.43zm0 18.87h9.43v9.43h-9.43zm0 18.87h9.43v9.43h-9.43zm0 18.87h9.43v9.43h-9.43zm0 18.87h9.43v9.43h-9.43zm0-169.81h9.43v9.43h-9.43zm0 18.86h9.43v9.43h-9.43zm0 18.87h9.43v9.43h-9.43zm0 18.87h9.43v9.43h-9.43zm0 130.79h9.43v9.43h-9.43zm0 18.86h9.43v9.43h-9.43z"/><path class="cls-3" d="M138.07 213.52h58.1v265.6h-58.1z"/></g><path class="cls-4" d="M394.93 268.3v-18.26h-14.94v-16.6h-29.88v16.6h-14.94v18.26h-8.3v210.82h76.36V268.3h-8.3z"/><g class="cls-2"><path class="cls-3" d="M196.84 382.84h129.48v96.28H196.84z"/><path class="cls-3" d="M217.87 230.12h86.32v152.72h-86.32zM236.13 177h49.8v53.12h-49.8z"/><path class="cls-3" d="M196.84 382.84h129.48v96.28H196.84zm-.31 17.84h128.98M196.53 420.6h128.98m-128.98 19.92h128.98m-128.98 19.92h128.98m-98.24-220.36v141.38m9.49-141.38v141.38m9.48-141.38v141.38m9.49-141.38v141.38m9.48-141.38v141.38m9.49-141.38v141.38m-28.46-191.18v40.67m9.49-40.67v40.67m9.48-40.67v40.67m9.49-40.67v40.67m9.49 9.13v141.38m9.48-141.38v141.38"/></g><path class="cls-4" d="M338.49 278.26h51.46v11.62h-51.46zm0 22.29h51.46v11.62h-51.46zm0 44.58h51.46v11.62h-51.46zm0 22.3h51.46v11.62h-51.46zm0 44.58h51.46v11.62h-51.46zm0 22.29h51.46v11.62h-51.46z"/></g><g class="cls-2"><path class="cls-3" d="M70.21 212.9h10.07v20.14H70.21zm20.15 0h10.07v20.14H90.36zm20.14 0h10.07v20.14H110.5zm-40.29 30.22h10.07v20.14H70.21zm20.15 0h10.07v20.14H90.36zm20.14 0h10.07v20.14H110.5zm-40.29 30.21h10.07v20.14H70.21zm20.15 0h10.07v20.14H90.36zm20.14 0h10.07v20.14H110.5zm-40.29 30.21h10.07v20.14H70.21zm20.15 0h10.07v20.14H90.36zm20.14 0h10.07v20.14H110.5zm-40.29 30.22h10.07v20.14H70.21zm20.15 0h10.07v20.14H90.36zm20.14 0h10.07v20.14H110.5zm-40.29 30.21h10.07v20.14H70.21zm20.15 0h10.07v20.14H90.36zm20.14 0h10.07v20.14H110.5z"/><path class="cls-3" d="M51.34 190.47h86.74v288.65H51.34z"/><path class="cls-3" d="M114.86 477.79v-30.22a20.14 20.14 0 0 0-40.28 0v30.21"/></g></g><path class="cls-5" d="M32.5 480.02l246.79-1.89V279.5H265.5v-58h-76.44L189 300h-63l-1-72-74 1-18.5 251.02z"/><path class="cls-4" d="M921.13 199.27a44.19 44.19 0 1 0-44.21-44.15 44.24 44.24 0 0 0 44.21 44.15z"/><g class="cls-2"><path class="cls-3" d="M316.39 157.27l18.49-.02m9.24 0l9.24-.01m-23.1 11.96l36.97-.02m4.78-.01h4.77m12.15-3.42l6.07 6.06m0-6.06l-6.06 6.07"/></g><g class="cls-2"><path class="cls-3" d="M926.39 57.27l18.49-.02m9.24 0l9.24-.01m-23.1 11.96l36.97-.02m4.78-.01h4.77m12.15-3.42l6.07 6.06m0-6.06l-6.06 6.07"/></g><g class="cls-2"><path class="cls-3" d="M142.77 121.85l18.48-.01m9.25-.01h9.24m-23.1 11.95l36.97-.02m4.77 0l4.78-.01m12.15-3.42l6.07 6.07m0-6.07l-6.06 6.07"/></g><path class="cls-4" d="M962.33 480.6l63.17-.01m-991.5.05l910-.02"/><g class="cls-2"><path class="cls-3" d="M875.82 88.42l6.07 6.06m0-6.06l-6.07 6.07"/></g><g class="cls-2"><path class="cls-3" d="M47.96 481.08l-.09-146.53 18.7-.01"/><path class="cls-3" d="M67.09 480.63l-.15-251.31-16.09.01.07 105.22m58.35 146.5l-.15-252.62 16.95-.02.15 252.19h-4.35l-1.01-252.18M66.71 236l42.12-.02"/><path class="cls-3" d="M54.48 229.66v-7.8c0-.87 2.46-2.46 2.46-2.46s2.53 1.64 2.53 2.53v7.73m2.47 0v-7.8c0-.87 2.46-2.46 2.46-2.46s2.53 1.64 2.53 2.53v8.67m42.7-1.87v-6.9c0-.87 2.46-2.46 2.46-2.46s2.53 1.64 2.53 2.53v6.83m2.47 0v-6.9c0-.87 2.46-2.46 2.46-2.46s2.53 1.64 2.53 2.53v6.83m6.92 77.51v-6.29c0-.87 2.46-2.46 2.46-2.46S134 299.12 134 300v6.21m2.51.02v-6.29c0-.87 2.46-2.46 2.46-2.46s2.53 1.64 2.53 2.53v6.21m2.5.01v-6.29c0-.87 2.46-2.46 2.46-2.46S149 299.11 149 300v6.21m2.55.01v-6.29c0-.87 2.46-2.46 2.46-2.46s2.53 1.64 2.53 2.53v6.21m2.52.01v-6.29c0-.87 2.46-2.46 2.46-2.46S164 299.11 164 300v6.21m2.58 0v-6.29c0-.87 2.46-2.46 2.46-2.46s2.53 1.64 2.53 2.53v6.21m2.52.01v-6.29c0-.87 2.46-2.46 2.46-2.46s2.53 1.64 2.53 2.53v6.21m2.53 0v-6.29c0-.87 2.46-2.46 2.46-2.46s2.53 1.64 2.53 2.53v6.21m-99.82 82.36v-18.22a3.94 3.94 0 0 0-7.89 0v18.22zm10.22-.01v-18.22a3.94 3.94 0 1 0-7.89 0v18.22zm-19-93.03v-26.36a9.7 9.7 0 0 1 19.3.85v25.77"/><path class="cls-3" d="M75.37 295.64v-27a11.83 11.83 0 0 1 11.82-11.83c6.53 0 12.71 5 12.71 11.54v27.2"/><path class="cls-3" d="M71.35 269.4a16.28 16.28 0 1 1 32.55 0v26.48H71.79zm196.33 211.55l-.09-146.53-18.69.02"/><path class="cls-3" d="M248.55 480.53l-.15-251.32 16.09-.01.06 105.23m-58.18 146.56l-.15-252.62-16.95.01.14 252.18h4.35l.72-252.18m54.16 7.52l-42.12.02"/><path class="cls-3" d="M260.86 229.54v-7.8c0-.87-2.46-2.46-2.46-2.46s-2.53 1.64-2.53 2.53v7.73m-2.47.01v-7.8c0-.87-2.46-2.46-2.46-2.46s-2.53 1.64-2.53 2.53v8.67m-42.7-1.82v-6.9c0-.87-2.46-2.46-2.46-2.46s-2.53 1.64-2.53 2.53v6.83m-2.46.01v-6.9c0-.87-2.46-2.46-2.46-2.46s-2.53 1.64-2.53 2.53v6.83m48.8 7.53v-6.29c0-.87-2.46-2.46-2.46-2.46s-2.53 1.64-2.53 2.53v6.21m-3.17.01v-6.29c0-.87-2.46-2.46-2.46-2.46s-2.53 1.64-2.53 2.53v6.21m-3.18.02v-6.29c0-.87-2.46-2.46-2.46-2.46s-2.53 1.64-2.53 2.53v6.21m-3.18.01v-6.29c0-.87-2.46-2.46-2.46-2.46s-2.53 1.64-2.53 2.53v6.21m-109.34.08V230c0-.87-2.46-2.46-2.46-2.46s-2.53 1.64-2.53 2.53v6.21m-3.18.02V230c0-.87-2.46-2.46-2.46-2.46s-2.53 1.64-2.53 2.53v6.21m-3.17.02V230c0-.87-2.46-2.46-2.46-2.46s-2.53 1.64-2.53 2.53v6.21m-3.18.03V230c0-.87-2.46-2.46-2.46-2.46s-2.53 1.64-2.53 2.53v6.21m155 152.18v-18.21a3.94 3.94 0 1 1 7.89 0v18.22zm-10.25.01v-18.22a3.94 3.94 0 0 1 7.89 0v18.22zm18.96-93.05v-26.36a9.7 9.7 0 0 0-19.36.84v25.77"/><path class="cls-3" d="M240 295.54v-27a11.83 11.83 0 0 0-11.83-11.82c-6.53 0-12.7 5-12.7 11.55v27.2"/><path class="cls-3" d="M244 269.3a16.28 16.28 0 0 0-32.55 0v26.48h32.11z"/><circle class="cls-3" cx="226.27" cy="315" r="5.43"/><circle class="cls-3" cx="226.27" cy="315" r="13.47"/><path class="cls-3" d="M126.34 432.26c0-19.5 14-35.31 31.21-35.32s31.24 15.79 31.25 35.28"/><path class="cls-3" d="M126.34 438.17c0-19.5 14-35.31 31.21-35.32s31.6 15.3 31.62 34.8M125.7 306.53l63.11-.04m-7.75 75.91v-33.72a23.52 23.52 0 0 0-47 0v34.1"/><path class="cls-3" d="M130 383.39v-39.54a27.58 27.58 0 0 1 55.16 0v39.54z"/><circle class="cls-3" cx="157.44" cy="357.4" r="19.3"/><path class="cls-3" d="M156.75 358.26s-5.83-15.26.15-15.26-.15 15.26-.15 15.26z"/><path class="cls-3" d="M166.22 346.21c4.89 3.43-8.91 12.41-8.91 12.41s4-15.84 8.91-12.41"/><path class="cls-3" d="M157.17 357.92s13.81-8.74 15-2.89-15 2.89-15 2.89z"/><path class="cls-3" d="M170.87 364.81c-2.4 5.47-13.85-7.39-13.85-7.39s16.25 1.91 13.85 7.39"/><path class="cls-3" d="M158 357.78s10.87 12.21 5.28 14.33-5.28-14.33-5.28-14.33z"/><path class="cls-3" d="M153.43 372.41c-5.79-1.48 3.92-14.76 3.92-14.76s1.87 16.24-3.92 14.76"/><path class="cls-3" d="M157.59 358s-9.92 13-13.07 7.91 13.07-7.91 13.07-7.91z"/><path class="cls-3" d="M142.36 356.27c.35-6 15.24 1 15.24 1s-15.59 4.92-15.24-1"/><path class="cls-3" d="M156.75 357.61s-14.88-6.76-10.64-11 10.64 11 10.64 11zm-30.67 28.94h3.59v8.44h-3.41m62.9-.04h-4.53l-.01-4.54v-3.9h4.36m-58.97 3.05l54.61-.03"/><path d="M131.69 386.54h6.45v8.44h-6.45zm8.71 0h6.45v8.44h-6.45zm8.71-.01h6.45v8.44h-6.45zm8.71 0h6.45v8.44h-6.45zm8.7-.01h6.45v8.44h-6.45zm8.71 0h6.45v8.44h-6.45z" fill="#fff" stroke-miterlimit="10" stroke="#333"/><path class="cls-3" d="M67.73 421.98l26.87-.01m-26.87-15.58l29.01-.01m-29.01 6.01l15.01-.01m-32.29-98.99l10.29-.01m-10.29-25.99l7.29-.01m196.71 26.01l10.29-.01m-7.29-25.99l7.29-.01m-31.01 138.6l14.87-.01m-10.15-15.58l10.29-.01m-32.29 6.01l31.29-.01"/></g><path class="cls-4" d="M872.88 289.19h-44.44c-.87 0-1.53-.58-1.53-1.09s.65-1.09 1.53-1.09h9.06s-.05.09 1.21-.1a8.38 8.38 0 0 0 7.19-8.3v-.86a8.41 8.41 0 0 0-8.4-8.4h-38a8.41 8.41 0 0 0-8.4 8.4v.86a8.41 8.41 0 0 0 8.4 8.4h16c.87 0 1.53.58 1.53 1.09s-.65 1.09-1.53 1.09h-32.36a10.57 10.57 0 0 0-10.55 10.55V301a10.57 10.57 0 0 0 10.55 10.55h89.73A10.57 10.57 0 0 0 883.43 301v-1.29a10.57 10.57 0 0 0-10.55-10.52zM726.17 107.26a2.39 2.39 0 0 1-2.38-2.38V104a2.39 2.39 0 0 1 2.38-2.38h22.08a13.06 13.06 0 0 0 13-13v-3.98a13.06 13.06 0 0 0-13-13H610.92a13.06 13.06 0 0 0-13 13v3.89a13.06 13.06 0 0 0 13 13h87.65a2.59 2.59 0 0 1 2.61 2.38v.92a2.39 2.39 0 0 1-2.38 2.38h-18a12.22 12.22 0 0 0-12.2 12.2v1.27a12.22 12.22 0 0 0 12.2 12.2h87.36a12.22 12.22 0 0 0 12.2-12.2v-1.27a12.22 12.22 0 0 0-12.2-12.2z"/><path class="cls-5" d="M316 269h146v211H316z"/><g class="cls-2"><g class="cls-2"><path class="cls-3" d="M341.73 311.98l12.87-.01m-2.15-14.58l10.29-.01m-35.17.02l18.87-.01"/></g><g class="cls-2"><path class="cls-3" d="M415.73 473.98l12.87-.01m-2.15-14.58l10.29-.01m-35.17.02l18.87-.01"/></g><path class="cls-3" d="M424.45 298.39l10.29-.01"/><path class="cls-7" d="M319.46 279.58h134.33v10.62H319.46zm0 27.93h134.33v10.62H319.46zm7.15-17.08h120.02v17.08H326.61zm0 190.65V318.13h120.03v162.95m.06-110.05H326.85m119.39 50.78H326.85m10.35 43.39h-10.35m119.85 0h-85.09"/><path class="cls-7" d="M437.19 361.98h-24.01v-36.47h24.01v36.47zm0-18.4h-24.01m12-17.55v35.95m-17.84 0h34.16m-41.24 0h-24.01v-36.47h24.01v36.47zm0-18.4h-24.01m12-17.55v35.95m-17.84 0h34.16m-41.24 0h-24.01v-36.47h24.01v36.47zm0-18.4h-24.01m12-17.55v35.95m-17.84 0h34.16m69.55 52.16h-24.01v-36.46h24.01v36.46zm0-18.39h-24.01m12-17.55v35.94m-17.84 0h34.16m-4.31 38.78h-24.01v-21.46h24.01v21.46zm-29.85 0h34.16m-41.7 0h-24.01v-21.46h24.01v21.46zm-29.85 0h34.16m-66.63 28.16v-49.39h24v49.39m38.78-66.94h-24.01v-36.46h24.01v36.46zm0-18.39h-24.01m12-17.55v35.94m-17.84 0h34.16m-41.24 0h-24.01v-36.46h24.01v36.46zm0-18.39h-24.01m12-17.55v35.94m-17.84 0h34.16"/></g><path class="cls-5" d="M525 315h150v165H525z"/><g class="cls-2"><path class="cls-7" d="M536.57 399.12h14.93m-14.73 81.96V355.31m131.64.14v125.63M536.77 348.06v-14.13h131.64v14.25m-.52 0h7.64v7.13H536.29"/><path class="cls-7" d="M536.29 355.31h-6.65v-7.13h138.25M529.64 318h145.89v15.93H529.64zm138.77 90.55H536.77m121.94 62.05h9.91m-132.06 0h92.94m13.38-72.95h-80.49v-33.96h80.49v33.96z"/><path class="cls-7" d="M571.61 372.29h27.67v17.61h-27.67zm34.38 0h27.67v17.61h-27.67zm36.79 17.61h-80.49m-7.26 65.82v-28.93h59.11v28.93m6.71 0h-72.53m81.33 25.15v-55.53h28.93v55.53M554.4 442.51h59.53m-29.52-15.57v15.73"/><path class="cls-7" d="M634.68 431.82h8.38v17.19h-8.38zm10.48 0h8.38v17.19h-8.38zm-10.48 26.83h8.38v17.19h-8.38zm10.48 0h8.38v17.19h-8.38zm22.67-82.2H656.5m-111-11.95h10m-9.5-23h10m-19.43 121.46h38.93"/></g><path d="M374 127.28v1.39a11.17 11.17 0 0 0 11.16 11.16h47.57c.95 0 1.78.61 1.78 1.31s-.83 1.31-1.78 1.31H423l-1.14.05v0a8.78 8.78 0 0 0-7.7 8.76v.92a8.86 8.86 0 0 0 8.85 8.85h40.64a8.86 8.86 0 0 0 8.85-8.85v-.92a8.86 8.86 0 0 0-8.85-8.85h-17.06c-.95 0-1.78-.61-1.78-1.31s.83-1.31 1.78-1.31h34.64a11.17 11.17 0 0 0 11.16-11.16v-1.39a11.17 11.17 0 0 0-11.16-11.16h-96.07a11.17 11.17 0 0 0-11.16 11.2z" fill="#fff" stroke-miterlimit="10" stroke="#333" opacity=".55"/><g class="cls-2"><path class="cls-3" d="M1050.5 423.47l-.02 42.01"/><path class="cls-3" transform="rotate(180 932.08 445.93)" d="M924.9 438.35h14.61v14.61H924.9z"/><path class="cls-3" transform="rotate(-179.97 932.222 445.686)" d="M929.73 443.16h5v5h-5z"/><path class="cls-3" transform="rotate(180 900.175 445.905)" d="M893 438.34h14.61v14.61H893z"/><path class="cls-3" transform="rotate(-179.97 900.322 445.67)" d="M897.83 443.14h5v5h-5z"/><path class="cls-3" transform="rotate(-179.97 868.112 445.648)" d="M860.82 438.32h14.61v14.61h-14.61z"/><path class="cls-3" transform="rotate(-179.97 868.142 445.648)" d="M865.65 443.12h5v5h-5z"/><path class="cls-3" transform="rotate(180 836.46 445.85)" d="M829.29 438.3h14.61v14.61h-14.61z"/><path class="cls-3" transform="rotate(-179.97 836.607 445.631)" d="M834.12 443.1h5v5h-5z"/><path class="cls-3" transform="rotate(-179.97 804.307 445.61)" d="M797.01 438.28h14.61v14.61h-14.61z"/><path class="cls-3" transform="rotate(-179.97 804.332 445.61)" d="M801.85 443.08h5v5h-5z"/><path class="cls-3" d="M1003.2 360.53v-.25a3.06 3.06 0 1 0-6.11 0v7.53h6.11zm-7.77-.01v-.25a3.06 3.06 0 1 0-6.11 0v7.53h6.11zm7.57-28.99v-.24a2.57 2.57 0 1 0-5.06 0v7.46h5.06zm-6.56-.01v-.24a2.57 2.57 0 1 0-5.06 0v7.46h5.06z"/><path class="cls-3" d="M986.83 376.13c.24-.06 18.92 0 18.92 0v-22l-8.87-8.15-9.88 8.11zm.17-4.04h18.55m-.22-17.56l-18.18-.01m22.5-95.4h-6.87l3.39-5.19 3.48 5.19zm-5.71 0v4.74h4.54l.01-4.42m10.28-.31l-6.87-.01 3.39-5.19 3.48 5.2z"/><path class="cls-3" d="M1013.06 259.12v4.74l4.55.01v-4.42m-16.67-.33l-6.87-.01 3.39-5.19 3.48 5.2z"/><path class="cls-3" d="M995.23 259.11v4.74h4.55v-4.41m-8.48-.33h-6.87l3.39-5.19 3.48 5.19zm-5.71 0v4.74h4.55v-4.42m56.96 60.85h-2.65v-8.78h-3.16v8.77h-4.07v-8.77h-3.16v8.77H1030v-8.77h-3.16v8.77h-4.07v-8.77h-3.16v8.77h-4.07v-8.77h-3.16v8.77h-4.07v-8.77h-3.16v8.77h-4.07v-8.77h-3.16v8.77h-4.07v-8.77h-3.16v8.77h-4.09v-8.77h-3.16v8.77h-4.07v-8.77h-3.16v8.77h-4.07v-8.77H969v8.77h-4.07v-8.77h-3.16v8.77h-4.07v-8.77h-3.16v8.77h-4.07v-8.77h-3.16v8.77h-4.07v-8.77h-3.16v8.77H938m67.17 8.97a8.74 8.74 0 0 0-16.08.06V341h16.08zm20.8-24.23l.01-27.59 7.68.01-.01 17.65m.01-17.65l1.99-7.08-13.26-.01 3.59 7.08m9.68-24.82s-2.87-6.33-6.58-6.3c-5.14 0-6.54 6.53-6.54 6.53"/><path class="cls-3" d="M1031.09 246.84s-1.25-2.81-2.37-2.81-2.19 2.81-2.19 2.81m-72.27 48.52l.01-17.98h-7.67l-.02 27.16m.02-27.16l-1.98-7.09 13.25.01-3.6 7.08"/><path class="cls-3" d="M944.62 270.29v-17.75l13.28.09v17.75s64.47.12 64.47 0v-17.71l13.28-.07v17.75"/><path class="cls-3" d="M944.63 252.54s2.88-6.32 6.58-6.29c5.14 0 6.53 6.54 6.53 6.54"/><path class="cls-3" d="M949.2 246.79s1.25-2.81 2.37-2.81 2.19 2.81 2.19 2.81"/><rect class="cls-3" x="950.48" y="235" width="2.33" height="6.45" rx=".46" ry=".46"/><rect class="cls-3" x="971.46" y="235.01" width="2.33" height="6.45" rx=".46" ry=".46"/><rect class="cls-3" x="950.48" y="241.26" width="2.33" height="2.95" rx=".46" ry=".46"/><path class="cls-3" d="M781.32 465.24l.02-25.01-13.84-.01-.02 25.01"/><path class="cls-3" d="M767.5 440.22l-6.53-15.38 23.91.01-3.54 15.38"/><path class="cls-3" d="M760.97 424.84l.02-32.02 23.94.16-.01 32.02 193.07.11"/><path class="cls-3" d="M761 392.82s5.19-11.41 11.88-11.34c9.26.09 11.78 11.79 11.78 11.79"/><path class="cls-3" d="M766.22 385.2a10.36 10.36 0 0 0-1.66-.15c-6.69-.06-11.88 11.34-11.88 11.34h8m8.56-13.95s2.26-5.07 4.27-5.07 3.94 5.08 3.94 5.08"/><rect class="cls-3" x="771.54" y="361.18" width="4.2" height="11.64" rx=".46" ry=".46"/><rect class="cls-3" x="771.54" y="372.47" width="4.2" height="5.33" rx=".46" ry=".46"/><path class="cls-3" d="M953.66 392.94s5.19-11.41 11.88-11.34c9.26.09 11.78 11.79 11.78 11.79"/><path class="cls-3" d="M961.91 382.56s2.26-5.07 4.27-5.07 3.94 5.08 3.94 5.08m-209.83 4.59s2.26-5.07 4.27-5.07c1 0 2 1.22 2.68 2.46"/><rect class="cls-3" x="762.59" y="365.9" width="4.2" height="11.64" rx=".46" ry=".46"/><rect class="cls-3" x="762.59" y="377.18" width="4.2" height="5.33" rx=".46" ry=".46"/><path class="cls-3" d="M982.6 252.57h-20s3.58-6.4 9.65-6.4c7.11-.01 10.35 6.4 10.35 6.4z"/><path class="cls-3" d="M976.52 247.09c-.17-.26-1.87-3.59-3.92-3.58-2.6 0-3.88 3.44-3.88 3.44"/><path class="cls-3" d="M974.72 244.49s.18-2.92-2-2.92-2.33 2.37-2.24 2.87m12.18 11.08l-19.89-.01m59.49 8.36l-39.61-.03-20.03-.01h-4.44m24.42-11.26l-.02 42.67m-20.05-42.68l-.02 42.58m15.51-31.39l-.02 31.18m-9.66-31.19l-.02 31.18m-10.42-24.54l-.02 24.64M752.69 396.4l-.02 30.76h9.59m-9.59 0l7.18 13.05 7.16.01m16.52-10.11l172.14-.03m-195.55 28.74l290.75.17m-291.04 6.24l-7.83 14.9m15.48-14.9l-7.14 15.14m177.88-135.85l-6.73 7.81h6.72l.01-7.81zm-6.73 7.81l-.02 26.9 6.91.01m-6.91-.01l3.63 11.46h3.09m-3.09-.01l-.02 24.36m-149.95-.27l168.84.1m23.62 10.24l-2.9 14.89h-13.45s-6.54-11.82-7.61-15v-32l23.95.16zm-16.35 14.85l-.01 18.72m.38-14.72h13.63m12.15 36.55c-1.09-.73-12.53-15.28-12.53-15.28V440"/><path class="cls-3" d="M1063 480.37c-.91-.55-12.15-14.89-12.15-14.89l-291-.25v-25m290.65-16.76l1.98-10.42-17.53-.01 5.4 10.42 10.15.01zm2.18-36.27s-3.8-8.37-8.7-8.33c-6.79.06-8.65 8.64-8.65 8.64"/><path class="cls-3" d="M1046.64 379.58s-1.65-3.72-3.13-3.72-2.9 3.72-2.9 3.72"/><rect class="cls-3" x="1041.88" y="363.99" width="3.08" height="8.54" rx=".46" ry=".46" transform="rotate(-179.97 1043.406 368.287)"/><rect class="cls-3" x="1041.87" y="372.27" width="3.08" height="3.91" rx=".46" ry=".46" transform="rotate(-179.97 1043.403 374.252)"/><path class="cls-3" d="M1035.1 413.04l.01-25.74 17.57-.1-.02 25.74m-12.18 45.97l.02-31.99v-3.46m10.36 3.64h-10.36m-4.89-12.22l-57.49-.04m.25 3.56l58.76.04m4.63-113.84l-99.5-.06"/><path class="cls-9" d="M1037.46 295.18h-8.69v9.23s1.36 3.26 4.34 3.26 4.35-3.46 4.35-3.46z"/><path class="cls-3" d="M1046.29 307.27c-3 0-4.75-2.85-4.75-2.85v-9.23h5.06v83.89"/><path class="cls-9" d="M1024.29 295.17h-8.69v9.23s1.36 3.26 4.34 3.26 4.35-3.46 4.35-3.46zm-13.11 0h-8.69v9.23s1.36 3.26 4.34 3.26 4.35-3.46 4.35-3.46zm-13.18-.01h-8.69v9.23s1.36 3.26 4.34 3.26 4.35-3.46 4.35-3.46zm-13.93-.01h-8.69v9.23s1.36 3.26 4.34 3.26 4.35-3.46 4.35-3.46zm-13.07-.01h-8.69v9.23s1.36 3.26 4.34 3.26 4.35-3.46 4.35-3.46zm-13.21 0h-8.69v9.23s1.36 3.26 4.34 3.26 4.35-3.46 4.35-3.46z"/><path class="cls-3" d="M938.36 307.62c3 0 4.35-3.46 4.35-3.46v-9h-4.52l-.06 108.3"/><path class="cls-9" d="M948.23 403.43H937v11.94s1.75 4.21 5.62 4.22 5.62-4.47 5.62-4.47zm-32.66-.02h-11.23v11.94s1.75 4.21 5.62 4.22 5.62-4.47 5.62-4.47zm15.86.01H920.2v11.94s1.75 4.21 5.62 4.22 5.62-4.47 5.62-4.47zM899 403.4h-11.25v11.94s1.75 4.21 5.62 4.22 5.62-4.47 5.62-4.47zm-16.35-.01h-11.23v11.94s1.75 4.21 5.62 4.22 5.62-4.47 5.62-4.47zm-16.59-.01h-11.23v11.94s1.75 4.21 5.62 4.22 5.62-4.47 5.62-4.47zm-15.45-.01h-11.24v11.93s1.75 4.21 5.62 4.22 5.61-4.52 5.61-4.52zm-16.61-.01h-11.22v11.94s1.75 4.21 5.62 4.22S834 415 834 415zm-16.13-.01h-11.24v11.94s1.75 4.21 5.62 4.22 5.62-4.47 5.62-4.47zm-16.59-.01H790v11.94s1.75 4.21 5.62 4.22 5.62-4.47 5.62-4.47z"/><rect class="cls-3" x="964.21" y="361.3" width="4.2" height="11.64" rx=".46" ry=".46"/><rect class="cls-3" x="964.21" y="372.58" width="4.2" height="5.33" rx=".46" ry=".46"/><rect class="cls-3" x="1027.49" y="235.05" width="2.33" height="6.45" rx=".46" ry=".46" transform="rotate(-179.97 1028.652 238.3)"/><rect class="cls-3" x="1027.49" y="241.3" width="2.33" height="2.95" rx=".46" ry=".46" transform="rotate(-179.97 1028.649 242.81)"/></g><g class="cls-2"><path class="cls-3" d="M986.29 462.46h-13.95m2.34-15.81l-11.16-.01m38.13.02l-20.46-.01"/></g><g class="cls-2"><path class="cls-3" d="M980.87 371.41l-13.94-.01m2.33-15.8l-11.16-.01m38.13.02l-20.46-.01"/></g></svg>