<svg id="Camada_1" data-name="Camada 1" xmlns="http://www.w3.org/2000/svg" viewBox="0 0 1641 672"><defs><style>.cls-1,.cls-3{opacity:.2}.cls-2,.cls-3{fill:#003038}.cls-4{fill:#55dbc2}.cls-5{fill:#2a2c2d}.cls-7{fill:#f7941e}.cls-8{fill:#666}.cls-15,.cls-17,.cls-18,.cls-8{stroke:#302d2d}.cls-10,.cls-8{stroke-miterlimit:10}.cls-9{fill:#a6a6a6}.cls-10,.cls-15{fill:none}.cls-10{stroke:#231f20}.cls-15,.cls-17,.cls-18{stroke-linecap:round;stroke-linejoin:round}.cls-17{fill:#697271}.cls-18{fill:#f5f5f5}</style></defs><g class="cls-1"><path class="cls-2" d="M1410.1 477.24h6.03v-91.61h-6.03v91.61z"/><path class="cls-2" d="M1602.84 459.24a14.63 14.63 0 0 0-3 29v9.43H1572V334.41h-47.39V310.3h-12.05v-34.39l-18.08-18.08V241h-6v16.83l-18.08 18.08v34.39h-12.05V347l-65.1 18.31v132.32h-32.86v5.63h281v-5.63h-35.51v-9.43a14.63 14.63 0 0 0-3-29zm-117.4 37.88V479a6 6 0 1 1 12.05 0v18.08zm39.17-156.69H1566v156.69h-41.37zm-48.21-62l15.07-15.07 15.07 15.07v31.9h-6.2v-9.63h-5.67v9.61h-6.38v-9.61h-5.67v9.61h-6.2zm-12 37.92h54.24v180.77h-15.07V479a12.05 12.05 0 0 0-24.11 0v18.08h-15.07zm-65.1 53.51l58.26-16.39v143.65h-58.26zm203.59 112.65a8.61 8.61 0 1 1 8.61-8.61 8.62 8.62 0 0 1-8.66 8.59z"/><path class="cls-2" d="M1529.83 457.95h6.03v6.03h-6.03zm0 18.08h6.03v6.03h-6.03zm12.05-18.08h6.03v6.03h-6.03zm0 18.08h6.03v6.03h-6.03zm12.05-18.08h6.03v6.03h-6.03zm0 18.08h6.03v6.03h-6.03zm-24.1-66.29h6.03v6.03h-6.03zm0 12.05h6.03v6.03h-6.03zm0 12.05h6.03v6.03h-6.03zm12.05-24.1h6.03v6.03h-6.03zm0 24.1h6.03v6.03h-6.03zm0 12.06h6.03v6.03h-6.03zm12.05-36.16h6.03v6.03h-6.03zm0 12.05h6.03v6.03h-6.03zm0 12.05h6.03v6.03h-6.03zm0 12.06h6.03v6.03h-6.03z"/><path class="cls-2" transform="rotate(-89.4 1544.846 349.508)" d="M1541.88 337.42h6.03v24.11h-6.03z"/><path class="cls-2" d="M1532.84 358.51h24.11v6.03h-24.11zm0 12.06h24.11v6.03h-24.11zm0 12.05h24.11v6.03h-24.11zm0 12.05h24.11v6.03h-24.11zm-38.18-111.49h5.67v11.68h-5.67zm11.34 46.46h-10.54v17.58H1506zm-3.51 14.06H1499v-10.55h3.52zm3.51 7.03h-10.54v17.58H1506zm-3.51 14.06H1499v-10.54h3.52zm3.51 7.03h-10.54v17.58H1506zm-3.51 14.06H1499v-10.54h3.52zm3.04 8.04H1495v17.58h10.54zM1502 408h-3.52v-10.56h3.52zm3.53 7H1495v17.58h10.54zm-3.53 14.07h-3.52v-10.54h3.52zm3 10.05h-10.55v17.58H1505zm-3.51 14.06H1498v-10.55h3.52zm-60.05 24.06h6.02V373.58h-6.02v103.66zm-15.67 0h6.03v-97.63h-6.03v97.63zm56.84-194.06h5.67v11.68h-5.67zm5.85 46.46h-10.55v17.58h10.55zm-3.51 14.06h-3.52v-10.55h3.52zm3.51 7.03h-10.55v17.58h10.55zm-3.51 14.06h-3.52v-10.54h3.52zm3.51 7.03h-10.55v17.58h10.55zm-3.51 14.06h-3.52v-10.54h3.52zm3.05 8.04h-10.54v17.58H1488zm-3.56 14.08h-3.52v-10.56h3.52zm3.56 7h-10.54v17.58H1488zm-3.51 14.06h-3.52v-10.53h3.52zm2.96 10.06h-10.54v17.58h10.54zm-3.51 14.06h-3.52v-10.55h3.52z"/></g><path class="cls-3" d="M1341.34 497.25v-6.8h2.07a14.8 14.8 0 0 0 14.79-14.79v-2.59h-17.74v-14.45a6.28 6.28 0 1 1 8.41 5.92 2.59 2.59 0 1 0 1.75 4.87 11.46 11.46 0 1 0-15.34-10.79v14.46h-2v-25.66a11.46 11.46 0 1 0-15.34 10.79 2.59 2.59 0 1 0 1.75-4.87 6.29 6.29 0 1 1 8.41-5.92v25.67h-17.74v2.59a14.8 14.8 0 0 0 14.79 14.79h2v6.8h-34.44v-189h-54.36v24.4h-6.63v-48.83h-42.16v48.79h-12.2v18.3h-79.56v146.32h-20.21v6h282.77v-6zm-197.53 0h-8.38v-16.67a4.19 4.19 0 0 1 8.38 0zm32.06 0h-26.49v-16.67a9.76 9.76 0 0 0-19.52 0v16.68h-26.49V376h72.5v121.25zm0-126.8h-72.5V356.5h72.5zm19.19-81h31v43.22h-31m43.22 164.62h-55.42V338.2h55.42zm33.55 0h-12.73v-18.5a6.36 6.36 0 1 1 12.73 0v18.46zm15.25 0h-9.68v-18.5a11.93 11.93 0 1 0-23.86 0v18.5h-9.68V326h43.23zm0-176.82h-43.23v-6.63h43.23zm49.08 176.82h-3.9v-6.79h3.9zm-11.05-12a9.66 9.66 0 0 1-9.26-7h36.81a9.66 9.66 0 0 1-9.26 7zM1256 341.52h-5.57v12.2h5.57zm12.2 0h-5.57v12.2h5.57zm12.2 0h-5.57v12.2h5.57zm-24.4 18.3h-5.57V372h5.57zm12.2 0h-5.57V372h5.57zm12.2 0h-5.57V372h5.57zm-24.4 18.3h-5.57v12.2h5.57zm12.2 0h-5.57v12.2h5.57zm12.2 0h-5.57v12.2h5.57zm-24.4 18.3h-5.57v12.2h5.57zm12.2 0h-5.57v12.2h5.57zm12.2 0h-5.57v12.2h5.57zm-24.4 18.3h-5.57v12.2h5.57zm12.2 0h-5.57v12.2h5.57zm12.2 0h-5.57v12.2h5.57zM1256 433h-5.57v12.2h5.57zm12.2 0h-5.57v12.2h5.57zm12.2 0h-5.57v12.2h5.57zm-78.76-122h5.57v-12.2h-5.57zm12.2 0h5.57v-12.2h-5.57zm-12.2 18.3h5.57v-12.2h-5.57zm12.2 0h5.57v-12.2h-5.57zm-.53 97.59h-5.57v12.2h5.57zm0 24.4h-5.57v12.2h5.57zm0 24.4h-5.57v12.2h5.57zm0-122h-5.57v12.2h5.57zm0 24.39h-5.57v12.2h5.57zm0 24.4h-5.57v12.2h5.57zm-18.3 24.4h-5.57v12.2h5.57zm0 24.4h-5.57v12.2h5.57zm0 24.4h-5.57v12.2h5.57zm0-122h-5.57v12.2h5.57zm0 24.39h-5.57v12.2h5.57zm0 24.4h-5.57v12.2h5.57zm36.6 24.4h-5.57v12.2h5.57zm0 27.18v-2.75h-5.57v12.2h5.57zm0 21.61h-5.57v12.2h5.57zm0-122h-5.57v12.2h5.57zm0 24.39h-5.57v12.2h5.57zm0 24.4h-5.57v12.2h5.57zM1117.32 383v19.52h5.57V383zm25.08 0h-5.57v19.52h5.57zm19.52 0h-5.57v19.52h5.57zm-44.6 48.79h5.57v-19.52h-5.57zm25.08-19.52h-5.57v19.52h5.57zm19.52 0h-5.57v19.52h5.57zm-44.6 52.45h5.57V445.2h-5.57zm25.08-19.52h-5.57v19.52h5.57zm19.52 0h-5.57v19.52h5.57zm33.14-112.57v-43.22m127.25 154.92a3.22 3.22 0 1 0 3.22 3.22 3.22 3.22 0 0 0-3.22-3.21zm27.89 14.18a3.27 3.27 0 1 0-3.27 3.27 3.27 3.27 0 0 0 3.27-3.27z"/><g class="cls-1"><path class="cls-2" d="M925.28 310.3h-6.05v-35.89h-53.4v223.22H828v-9.43a14.64 14.64 0 1 0-6 0v9.43h-5.51v5.63h261v-5.63h-32.86V348.27L979.52 347v-36.7m-39.17 186.82V479a6 6 0 1 1 12.05 0v18.08zm-27.12 0h-41.37V280.44h41.37zm60.26 0h-15.06V479a12.05 12.05 0 0 0-24.11 0v18.08h-15.07V316.33h54.24zm65.1 0h-58.26V353.45l58.26 1.39zm-222.2-23.24a8.61 8.61 0 1 1 8.61 8.61 8.62 8.62 0 0 1-8.61-8.61z"/><path class="cls-2" d="M931.81 347.22h10.54v-17.58h-10.54zm0 21.09h10.54v-17.58h-10.54zm0 21.09h10.54v-17.58h-10.54zm.5 22.1h10.54v-17.58h-10.54zm0 21.09h10.54V415h-10.54zm.5 24.1h10.55v-17.57h-10.55zm63.59 20.55h-6.02V373.58h6.02v103.66zm-47.01-130.02h10.55v-17.58h-10.55zm0 21.09h10.55v-17.58h-10.55zm0 21.09h10.55v-17.58h-10.55zm.5 22.1h10.54v-17.58h-10.54zm0 21.09h10.54V415h-10.54zm.5 24.1h10.54v-17.57h-10.54zm62.01 20.55h-6.02V373.58h6.02v103.66zm15 0h-6.02V373.58h6.02v103.66z"/><path class="cls-2" transform="rotate(-.6 896.716 360.89)" d="M880.9 356.46h24.11v6.03H880.9z"/><path class="cls-2" d="M880.9 368.51h24.11v6.03H880.9zm0 12.06h24.11v6.03H880.9zm0 12.05h24.11v6.03H880.9zm0 12.05h24.11v6.03H880.9z"/><path class="cls-2" transform="rotate(-.6 897.03 300.73)" d="M880.9 296.46h24.11v6.03H880.9z"/><path class="cls-2" d="M880.9 308.51h24.11v6.03H880.9zm0 12.06h24.11v6.03H880.9zm0 12.05h24.11v6.03H880.9zm0 12.05h24.11v6.03H880.9z"/><path class="cls-2" transform="rotate(-.6 897.356 421.056)" d="M880.9 416.46h24.11v6.03H880.9z"/><path class="cls-2" d="M880.9 428.51h24.11v6.03H880.9zm0 12.06h24.11v6.03H880.9zm0 12.05h24.11v6.03H880.9zm0 12.05h24.11v6.03H880.9z"/></g><g class="cls-1"><path class="cls-2" d="M768.63 477.24h-6.03v-91.61h6.03v91.61z"/><path class="cls-2" d="M567.87 497.63h-20.5v5.63h271v-5.63H785.5V365.27L720.41 347v-76.7h-12.06v-37.39h-42.18v37.39h-12.05v64.11h-47.4v163.22H573.9m107.33-.5V479a6 6 0 1 1 12.05 0v18.08zm-27.12 0h-41.37V340.44h41.37zm48.22-226.83h-6.2v-9.6h-5.67v9.61h-6.38v-9.61h-5.68v9.61h-6.2v-31.9h30.14zm12 226.82h-15.02V479a12.05 12.05 0 0 0-24.11 0v18.08h-15.06V276.33h54.24zm65.1 0h-58.21V353.45l58.26 16.39z"/><path class="cls-2" d="M678.4 243.18h5.67v11.68h-5.67zm-5.7 104.04h10.54v-17.58H672.7zm3.51-14.06h3.52v10.54h-3.52zm-3.51 35.15h10.54v-17.58H672.7zm3.51-14.06h3.52v10.55h-3.52zm-3.51 35.15h10.54v-17.58H672.7zm3.51-14.06h3.52v10.55h-3.52zm-3.01 36.16h10.54v-17.58H673.2zm3.51-14.06h3.52V408h-3.52zm-3.51 35.15h10.54V415H673.2zm3.51-14.06h3.52v10.55h-3.52zm-3.01 38.16h10.55v-17.57H673.7zm3.51-14.06h3.52v10.55h-3.52zm60.08 34.61h-6.02V373.58h6.02v103.66zm15.67 0h-6.03v-97.63h6.03v97.63zm-62.51-234.06h5.67v11.68h-5.67zm-.18 104.04h10.55v-17.58h-10.55zm3.51-14.06h3.52v10.54h-3.52zm-3.51 35.15h10.55v-17.58h-10.55zm3.51-14.06h3.52v10.55h-3.52zm-21.08-50.03h10.54v-17.58H672.7zm3.51-14.06h3.52v10.54h-3.52zm-3.51 35.15h10.54v-17.58H672.7zm3.51-14.06h3.52v10.55h-3.52zm14.06-7.03h10.55v-17.58h-10.55zm3.51-14.06h3.52v10.54h-3.52zm-3.51 35.15h10.55v-17.58h-10.55zm3.51-14.06h3.52v10.55h-3.52zm-3.51 78.15h10.55v-17.58h-10.55zm3.51-14.06h3.52v10.55h-3.52zm-3 36.16h10.54v-17.58h-10.54zm3.51-14.06h3.52V408h-3.52zm-3.51 35.15h10.54V415h-10.54zm3.51-14.06h3.52v10.55h-3.52zm-3.01 38.16h10.54v-17.57h-10.54zm3.51-14.06h3.52v10.55h-3.52zm-76.31-90.11h5.57v12.2h-5.57zm12.2 0h5.57v12.2h-5.57zm12.2 0h5.57v12.2h-5.57zm-24.4 18.3h5.57v12.2h-5.57zm12.2 0h5.57v12.2h-5.57zm12.2 0h5.57v12.2h-5.57zm-24.4 18.29h5.57v12.2h-5.57zm12.2 0h5.57v12.2h-5.57zm12.2 0h5.57v12.2h-5.57zm-24.4 18.3h5.57v12.2h-5.57zm12.2 0h5.57v12.2h-5.57zm12.2 0h5.57v12.2h-5.57zm-24.4 18.3h5.57v12.2h-5.57zm12.2 0h5.57v12.2h-5.57zm12.2 0h5.57v12.2h-5.57zm-24.4 18.3h5.57v12.2h-5.57zm12.2 0h5.57v12.2h-5.57zm12.2 0h5.57v12.2h-5.57zm-24.4 19h5.57v12.2h-5.57zm12.2 0h5.57v12.2h-5.57zm12.2 0h5.57v12.2h-5.57z"/></g><path class="cls-3" d="M561.34 497.25v-6.8h2.07a14.8 14.8 0 0 0 14.79-14.79v-2.59h-17.75v-14.45a6.28 6.28 0 1 1 8.41 5.92 2.59 2.59 0 1 0 1.75 4.87 11.46 11.46 0 1 0-15.34-10.79v14.46h-2v-25.66a11.46 11.46 0 1 0-15.34 10.79 2.59 2.59 0 1 0 1.75-4.87 6.29 6.29 0 1 1 8.41-5.92v25.67h-17.77v2.59a14.8 14.8 0 0 0 14.79 14.79h2v6.8h-44.46v-189h-54.37v24.4h-6.63v-48.83h-42.16v48.79h-12.2v18.3H307.8v146.32h-20.21l15 6h277.78l-15-6zm-207.53 0h-8.38v-16.67a4.19 4.19 0 0 1 8.38 0zm32.06 0h-26.49v-16.67a9.76 9.76 0 0 0-19.52 0v16.68h-26.49V376h72.5v121.25zm0-126.8h-72.5V356.5h72.5zm19.19-81h31v43.22h-31m43.22 164.62h-55.42V338.2h55.42zm33.55 0H469.1v-18.5a6.36 6.36 0 1 1 12.73 0v18.46zm15.25 0h-9.68v-18.5a11.93 11.93 0 1 0-23.86 0v18.5h-9.68V326h43.23zm0-176.82h-43.23v-6.63h43.23zm59.08 176.82h-3.9v-6.79h3.9zm-11.05-12a9.66 9.66 0 0 1-9.26-7h36.81a9.66 9.66 0 0 1-9.26 7zM466 341.52h-5.57v12.2H466zm12.2 0h-5.57v12.2h5.57zm12.2 0h-5.57v12.2h5.57zm-24.4 18.3h-5.57V372H466zm12.2 0h-5.57V372h5.57zm12.2 0h-5.57V372h5.57zM466 378.11h-5.57v12.2H466zm12.2 0h-5.57v12.2h5.57zm12.2 0h-5.57v12.2h5.57zm-24.4 18.3h-5.57v12.2H466zm12.2 0h-5.57v12.2h5.57zm12.2 0h-5.57v12.2h5.57zm-24.4 18.3h-5.57v12.2H466zm12.2 0h-5.57v12.2h5.57zm12.2 0h-5.57v12.2h5.57zM466 433h-5.57v12.2H466zm12.2 0h-5.57v12.2h5.57zm12.2 0h-5.57v12.2h5.57zm-78.71-122h5.57v-12.2h-5.57zm12.2 0h5.57v-12.2h-5.57zm-12.2 18.3h5.57v-12.2h-5.57zm12.2 0h5.57v-12.2h-5.57zm-.53 97.59h-5.57v12.2h5.57zm0 24.4h-5.57v12.2h5.57zm0 24.4h-5.57v12.2h5.57zm0-122h-5.57v12.2h5.57zm0 24.39h-5.57v12.2h5.57zm0 24.4h-5.57v12.2h5.57zm-18.3 24.4h-5.57v12.2h5.57zm0 24.4h-5.57v12.2h5.57zm0 24.4h-5.57v12.2h5.57zm0-122h-5.57v12.2h5.57zm0 24.39h-5.57v12.2h5.57zm0 24.4h-5.57v12.2h5.57zm36.6 24.4h-5.57v12.2h5.57zm0 27.18v-2.75h-5.57v12.2h5.57zm0 21.61h-5.57v12.2h5.57zm0-122h-5.57v12.2h5.57zm0 24.39h-5.57v12.2h5.57zm0 24.4h-5.57v12.2h5.57zM327.32 383v19.52h5.57V383zm25.08 0h-5.57v19.52h5.57zm19.52 0h-5.57v19.52h5.57zm-44.6 48.79h5.57v-19.52h-5.57zm25.08-19.52h-5.57v19.52h5.57zm19.52 0h-5.57v19.52h5.57zm-44.6 52.45h5.57V445.2h-5.57zm25.08-19.52h-5.57v19.52h5.57zm19.52 0h-5.57v19.52h5.57zm33.14-112.57v-43.22m137.25 154.93a3.22 3.22 0 1 0 3.22 3.22 3.22 3.22 0 0 0-3.22-3.22zm27.89 14.18a3.27 3.27 0 1 0-3.27 3.27 3.27 3.27 0 0 0 3.27-3.28z"/><g class="cls-1"><path class="cls-2" d="M115.32 310.3V347l-65.1 1.31v149.32H-2.63v5.63h308v-5.63h-32.51v-9.43a14.64 14.64 0 1 0-6 0v9.43H229V274.41h-53.39v35.89h-6.05m-27.12 186.82V479a6 6 0 1 1 12.05 0v18.08zm39.17-216.69H223v216.69h-41.39zm-60.26 35.89h54.24v180.8h-15.07V479a12.05 12.05 0 0 0-24.11 0v18.08h-15.06zm-65.1 38.51l58.26-1.39v143.68H56.25zm213.59 127.66a8.61 8.61 0 1 1 8.61-8.61 8.62 8.62 0 0 1-8.61 8.61z"/><path class="cls-2" d="M163 329.64h-10.51v17.58H163zm0 21.09h-10.51v17.58H163zm0 21.09h-10.51v17.58H163zm-.47 22.1H152v17.58h10.54zm0 21.08H152v17.58h10.54zm-.53 24.12h-10.52v17.58H162zm-63.56 38.12h6.03V373.58h-6.03v103.66zm47.02-147.6h-10.55v17.58h10.55zm0 21.09h-10.55v17.58h10.55zm0 21.09h-10.55v17.58h10.55zm-.46 22.1h-10.59v17.58H145zm0 21.08h-10.59v17.58H145zm-.55 24.12h-10.54v17.58h10.54zm-62.01 38.12h6.03V373.58h-6.03v103.66zm-15 0h6.03V373.58h-6.03v103.66z"/><path class="cls-2" transform="rotate(-89.4 201.88 359.476)" d="M198.88 347.42h6.03v24.11h-6.03z"/><path class="cls-2" d="M189.84 368.51h24.11v6.03h-24.11zm0 12.06h24.11v6.03h-24.11zm0 12.05h24.11v6.03h-24.11zm0 12.05h24.11v6.03h-24.11z"/><path class="cls-2" transform="rotate(-89.4 201.882 299.475)" d="M198.88 287.42h6.03v24.11h-6.03z"/><path class="cls-2" d="M189.84 308.51h24.11v6.03h-24.11zm0 12.06h24.11v6.03h-24.11zm0 12.05h24.11v6.03h-24.11zm0 12.05h24.11v6.03h-24.11z"/><path class="cls-2" transform="rotate(-89.4 201.877 419.466)" d="M198.88 407.42h6.03v24.11h-6.03z"/><path class="cls-2" d="M189.84 428.51h24.11v6.03h-24.11zm0 12.06h24.11v6.03h-24.11zm0 12.05h24.11v6.03h-24.11zm0 12.05h24.11v6.03h-24.11z"/></g><path class="cls-4" d="M286.08 500.09h40.74a5 5 0 0 0 4.4-2.65l15.13-30.32a3.43 3.43 0 0 0-3-5h-8.84l1.58-1.94a16.25 16.25 0 0 1 12.57-5.95h67.25a16.25 16.25 0 0 1 13.44 7.09l24 35.21a6.6 6.6 0 0 0 5.44 2.88 7.63 7.63 0 0 1 7.64 7.62v24h-9.5a2.56 2.56 0 0 0-2.56 2.56V546h-9.77a22.58 22.58 0 1 0-45.16 0h-73.5a22.58 22.58 0 1 0-45.16 0H269.4v-12.42a2.56 2.56 0 0 0-2.56-2.56h-8.73v-3a28 28 0 0 1 27.97-27.93zm95 0a5 5 0 0 0 5-5v-28a5 5 0 0 0-5-5h-18.81a5 5 0 0 0-4.44 2.73l-14.28 28a5 5 0 0 0 4.44 7.26zm-9 14.11h9.26a3.52 3.52 0 0 0 0-7h-9.26a3.52 3.52 0 0 0 0 7zm26.78-14.11h38.67a4.36 4.36 0 0 0 3.58-6.87l-19.95-28.56a6 6 0 0 0-4.93-2.58h-17.29a6 6 0 0 0-6 6V494a6 6 0 0 0 6 6.09z"/><path class="cls-5" d="M466.42 507v24h-9.5a2.56 2.56 0 0 0-2.56 2.56V546h-9.77a22.58 22.58 0 1 0-45.16 0h-73.5a22.58 22.58 0 1 0-45.16 0H269.4v-12.42a2.56 2.56 0 0 0-2.56-2.56h-8.73v-3a27.88 27.88 0 0 1 8.19-19.77m105.86 5.93h9.26a3.52 3.52 0 0 0 0-7h-9.26a3.52 3.52 0 0 0 0 7z"/><path d="M296.2 500.09h30.62a5 5 0 0 0 4.4-2.65l15.13-30.32a3.43 3.43 0 0 0-3-5h-8.84s-8.76 9.6-17 19.66c-7.51 9.04-14.16 18.72-21.31 18.31z" fill="#fcfcfc"/><path class="cls-7" d="M392.93 453.95L375.7 439h-10.82l-.08 14.95h28.13z"/><path class="cls-8" d="M466.42 531h-9.5a2.56 2.56 0 0 0-2.56 2.56v13.32a2.56 2.56 0 0 0 2.56 2.56h12.34a2.55 2.55 0 0 0 2.54-2.56v-13.3a2.55 2.55 0 0 0-2.54-2.56zM252 533.58v13.32a2.56 2.56 0 0 0 2.56 2.56h12.33a2.56 2.56 0 0 0 2.56-2.56v-13.32a2.56 2.56 0 0 0-2.56-2.56h-12.37a2.56 2.56 0 0 0-2.52 2.56zM438.84 546A16.82 16.82 0 1 1 422 529.14 16.82 16.82 0 0 1 438.84 546zM422 555.64a9.66 9.66 0 1 0-9.65-9.67 9.67 9.67 0 0 0 9.65 9.67zM320.17 546a16.82 16.82 0 1 1-16.82-16.82A16.83 16.83 0 0 1 320.17 546zm-16.82 9.67a9.66 9.66 0 1 0-9.67-9.67 9.67 9.67 0 0 0 9.67 9.64z"/><path class="cls-9" d="M372.17 507.16a3.52 3.52 0 0 0 0 7h9.26a3.52 3.52 0 0 0 0-7z"/><path class="cls-10" d="M405.19 546A16.82 16.82 0 1 0 422 529.14 16.82 16.82 0 0 0 405.19 546z"/><path class="cls-10" d="M269.4 546h11.37a22.58 22.58 0 1 1 45.16 0h73.5a22.58 22.58 0 1 1 45.16 0h9.77"/><path class="cls-10" d="M466.42 531v-24a7.63 7.63 0 0 0-7.64-7.62 6.6 6.6 0 0 1-5.44-2.88l-24-35.21a16.25 16.25 0 0 0-13.44-7.09h-67.28a16.25 16.25 0 0 0-12.57 5.95l-1.58 1.94-26.61 32.48a15.08 15.08 0 0 1-11.67 5.53h-10.11a28 28 0 0 0-28 28v3M412.36 546a9.66 9.66 0 1 0 9.65-9.65 9.67 9.67 0 0 0-9.65 9.65z"/><path class="cls-10" d="M286.53 546a16.82 16.82 0 1 0 16.82-16.82A16.82 16.82 0 0 0 286.53 546z"/><path class="cls-10" d="M293.68 546a9.66 9.66 0 1 0 9.67-9.65 9.67 9.67 0 0 0-9.67 9.65z"/><path d="M437.61 500.09h-38.67a6 6 0 0 1-6-6V468.1a6 6 0 0 1 6-6h17.37a6 6 0 0 1 4.93 2.58l19.95 28.56a4.36 4.36 0 0 1-3.58 6.85zm-51.5-33.03v28a5 5 0 0 1-5 5H348a5 5 0 0 1-4.44-7.26l14.28-28a5 5 0 0 1 4.44-2.73h18.86a5 5 0 0 1 4.97 4.99z" stroke="#231f20" stroke-miterlimit="10" fill="#fcfcfc"/><path class="cls-10" d="M372.17 514.2h9.26a3.52 3.52 0 0 0 0-7h-9.26a3.52 3.52 0 0 0 0 7zm82.19 31.8v.94a2.56 2.56 0 0 0 2.56 2.56h12.34a2.55 2.55 0 0 0 2.54-2.56v-13.36a2.55 2.55 0 0 0-2.54-2.56h-12.34a2.56 2.56 0 0 0-2.56 2.56zm-184.96 0v-12.42a2.56 2.56 0 0 0-2.56-2.56h-12.32a2.56 2.56 0 0 0-2.56 2.56v13.32a2.56 2.56 0 0 0 2.56 2.56h12.33a2.56 2.56 0 0 0 2.56-2.56zm11.99 16.79h249.6M364.8 453.95l.08-14.95h10.82l17.23 14.95m-96.73 46.14h30.62a5 5 0 0 0 4.4-2.65l15.13-30.32a3.43 3.43 0 0 0-3-5h-8.84"/><path class="cls-7" d="M1408.73 451.95L1391.49 437h-10.81l-.08 14.95h28.13z"/><path class="cls-4" d="M1301.87 498.09h40.74a5 5 0 0 0 4.4-2.65l15.13-30.32a3.43 3.43 0 0 0-3-5h-8.84l1.58-1.94a16.25 16.25 0 0 1 12.57-5.95h67.25a16.25 16.25 0 0 1 13.44 7.09l24 35.21a6.6 6.6 0 0 0 5.44 2.88 7.63 7.63 0 0 1 7.64 7.62v24h-9.5a2.56 2.56 0 0 0-2.56 2.56V544h-9.77a22.58 22.58 0 1 0-45.16 0h-73.5a22.58 22.58 0 1 0-45.16 0h-11.37v-12.42a2.56 2.56 0 0 0-2.56-2.56h-8.73v-3a28 28 0 0 1 27.96-27.93zm95 0a5 5 0 0 0 5-5v-28a5 5 0 0 0-5-5h-18.86a5 5 0 0 0-4.44 2.73l-14.28 28a5 5 0 0 0 4.44 7.26zm-9 14.11h9.26a3.52 3.52 0 0 0 0-7H1388a3.52 3.52 0 1 0 0 7zm26.78-14.11h38.67a4.36 4.36 0 0 0 3.58-6.87l-19.9-28.57a6 6 0 0 0-4.93-2.58h-17.37a6 6 0 0 0-6 6V492a6 6 0 0 0 6.04 6.09z"/><path class="cls-5" d="M1482.22 505v24h-9.5a2.56 2.56 0 0 0-2.56 2.56V544h-9.77a22.58 22.58 0 1 0-45.16 0h-73.5a22.58 22.58 0 1 0-45.16 0h-11.37v-12.42a2.56 2.56 0 0 0-2.56-2.56h-8.73v-3a27.88 27.88 0 0 1 8.19-19.77m105.9 5.95h9.26a3.52 3.52 0 0 0 0-7H1388a3.52 3.52 0 1 0 0 7z"/><path class="cls-8" d="M1482.22 529h-9.5a2.56 2.56 0 0 0-2.56 2.56v13.32a2.56 2.56 0 0 0 2.56 2.56h12.34a2.55 2.55 0 0 0 2.54-2.56v-13.3a2.55 2.55 0 0 0-2.54-2.56zm-214.46 2.58v13.32a2.56 2.56 0 0 0 2.56 2.56h12.33a2.56 2.56 0 0 0 2.56-2.56v-13.32a2.56 2.56 0 0 0-2.56-2.56h-12.33a2.56 2.56 0 0 0-2.56 2.56zM1454.63 544a16.82 16.82 0 1 1-16.82-16.82 16.82 16.82 0 0 1 16.82 16.82zm-16.82 9.67a9.66 9.66 0 1 0-9.65-9.67 9.67 9.67 0 0 0 9.65 9.64zM1336 544a16.82 16.82 0 1 1-16.82-16.82A16.83 16.83 0 0 1 1336 544zm-16.82 9.67a9.66 9.66 0 1 0-9.67-9.67 9.67 9.67 0 0 0 9.64 9.64z"/><path class="cls-9" d="M1388 505.16a3.52 3.52 0 1 0 0 7h9.26a3.52 3.52 0 0 0 0-7z"/><path class="cls-10" d="M1421 544a16.82 16.82 0 1 0 16.82-16.82A16.82 16.82 0 0 0 1421 544z"/><path class="cls-10" d="M1285.2 544h11.37a22.58 22.58 0 1 1 45.16 0h73.5a22.58 22.58 0 1 1 45.16 0h9.77"/><path class="cls-10" d="M1482.22 529v-24a7.63 7.63 0 0 0-7.64-7.62 6.6 6.6 0 0 1-5.44-2.88l-24-35.21a16.25 16.25 0 0 0-13.44-7.09h-67.25a16.25 16.25 0 0 0-12.57 5.95l-1.58 1.94-26.61 32.48a15.08 15.08 0 0 1-11.67 5.53h-10.12a28 28 0 0 0-28 28v3m154.26 14.9a9.66 9.66 0 1 0 9.65-9.65 9.67 9.67 0 0 0-9.65 9.65z"/><path class="cls-10" d="M1302.32 544a16.82 16.82 0 1 0 16.82-16.82 16.82 16.82 0 0 0-16.82 16.82z"/><path class="cls-10" d="M1309.48 544a9.66 9.66 0 1 0 9.67-9.65 9.67 9.67 0 0 0-9.67 9.65z"/><path d="M1453.41 498.09h-38.67a6 6 0 0 1-6-6V466.1a6 6 0 0 1 6-6h17.37a6 6 0 0 1 4.93 2.58l19.96 28.54a4.36 4.36 0 0 1-3.59 6.87zm-51.5-33.03v28a5 5 0 0 1-5 5h-33.14a5 5 0 0 1-4.44-7.26l14.28-28a5 5 0 0 1 4.44-2.73h18.86a5 5 0 0 1 5 4.99zm-49.64-4.98h6.84a3.43 3.43 0 0 1 3 5L1347 495.43a5 5 0 0 1-4.4 2.65H1321" fill="#fff" stroke="#231f20" stroke-miterlimit="10"/><path class="cls-10" d="M1388 512.2h9.26a3.52 3.52 0 0 0 0-7H1388a3.52 3.52 0 1 0 0 7zm82.16 31.8v.94a2.56 2.56 0 0 0 2.56 2.56h12.34a2.55 2.55 0 0 0 2.54-2.56v-13.36a2.55 2.55 0 0 0-2.54-2.56h-12.34a2.56 2.56 0 0 0-2.56 2.56zm-184.96 0v-12.42a2.56 2.56 0 0 0-2.56-2.56h-12.33a2.56 2.56 0 0 0-2.56 2.56v13.32a2.56 2.56 0 0 0 2.56 2.56h12.33a2.56 2.56 0 0 0 2.56-2.56zm11.99 16.79h249.59M1380.6 451.95l.08-14.95h10.81l17.24 14.95"/><path class="cls-5" d="M741.6 585.23a22.57 22.57 0 0 0 21.3-15.09l2.79-7.95A22.58 22.58 0 0 1 787 547.1h85.9a22.58 22.58 0 0 1 21.3 15.09l3.56 10.12a22.58 22.58 0 0 0 18.09 14.86l43.94 6.31a22.58 22.58 0 0 1 19.37 22.35v7.53H706.85v-15.55a22.58 22.58 0 0 1 22.58-22.58z"/><path fill="#f7931e" d="M959.48 594.03l.75.12v-.87l1.19 1.05 3.82.59 4.22 2.7 3.56 3.94 3.2 2.65 1.86 4.56-2.46-1.95 3.42 3.02h-18.81v-15.21l-.75-.6z"/><path class="cls-4" d="M915.85 587.18a22.58 22.58 0 0 1-18.09-14.86l-3.56-10.12a22.58 22.58 0 0 0-21.3-15.09H787a22.58 22.58 0 0 0-21.3 15.09l-2.79 7.95a22.5 22.5 0 0 1-8.25 10.94c-4 2.81-28.47 5.43-33 5.43L711.13 594h248.35z"/><path d="M702 634.15a7.53 7.53 0 0 0 7.53 7.53H976.1a6.61 6.61 0 0 0 4.88-2.2 7.85 7.85 0 0 0 2-5.32v-10.8H702z" stroke-linecap="round" stroke-linejoin="round" stroke="#302d2d" fill="#666"/><path class="cls-15" d="M741.6 585.23a22.57 22.57 0 0 0 21.3-15.09l2.79-7.95A22.58 22.58 0 0 1 787 547.1h85.9a22.58 22.58 0 0 1 21.3 15.09l3.56 10.12a22.58 22.58 0 0 0 18.09 14.86l43.94 6.31a22.58 22.58 0 0 1 19.37 22.35v7.53H706.85v-15.55a22.58 22.58 0 0 1 22.58-22.58z"/><path d="M834.67 587h55.94l-6.89-17.36a22.58 22.58 0 0 0-21-14.25h-28.05zm-10.48 0h-55.93l6.89-17.36a22.58 22.58 0 0 1 21-14.25h28.07z" stroke-linecap="round" stroke-linejoin="round" fill="#fff" stroke="#302d2d"/><circle class="cls-17" cx="926.68" cy="632.52" r="21.27"/><circle class="cls-18" cx="926.68" cy="632.52" r="9.95"/><circle class="cls-17" cx="752.84" cy="632.52" r="21.27"/><circle class="cls-18" cx="752.84" cy="632.52" r="9.95"/><path stroke-linecap="round" stroke-linejoin="round" fill="#f7931e" stroke="#302d2d" d="M820.62 534.81h8.47l8.47 12.29h-16.94v-12.29z"/><path class="cls-17" d="M983.01 632.52h-17.39m-263.65-1.76h15.68m68.12 1.76h51.79m19.63 0h25.9"/><path class="cls-15" d="M908.12 594.03H711.89m265.65 16.56h-18.06v-16.56"/><path class="cls-10" d="M952.78 653.79H590.97"/></svg>