<svg id="Layer_1" data-name="Layer 1" xmlns="http://www.w3.org/2000/svg" xmlns:xlink="http://www.w3.org/1999/xlink" viewBox="0 0 765.35 243.13"><defs><style>.cls-24{fill:#fff}</style><linearGradient id="linear-gradient" x1="-6464.92" y1="115.45" x2="-6599.36" y2="115.45" gradientTransform="matrix(-1 0 0 1 -5968.59 0)" gradientUnits="userSpaceOnUse"><stop offset="0" stop-color="#173745"/><stop offset=".44" stop-color="#00a6c7"/><stop offset=".53" stop-color="#01a3c3"/><stop offset=".61" stop-color="#039ab8"/><stop offset=".69" stop-color="#068aa6"/><stop offset=".76" stop-color="#0a748c"/><stop offset=".83" stop-color="#10576b"/><stop offset=".9" stop-color="#173745"/></linearGradient><linearGradient id="linear-gradient-2" x1="-6422.09" y1="80.34" x2="-6621.41" y2="80.34" xlink:href="#linear-gradient"/><linearGradient id="linear-gradient-3" x1="-6422.08" y1="115.74" x2="-6621.41" y2="115.74" xlink:href="#linear-gradient"/><linearGradient id="linear-gradient-4" x1="602.47" y1="130.12" x2="743.94" y2="130.12" gradientUnits="userSpaceOnUse"><stop offset=".48" stop-color="#00a3c8"/><stop offset=".56" stop-color="#0099bc"/><stop offset=".71" stop-color="#007d9c"/><stop offset=".91" stop-color="#005269"/><stop offset="1" stop-color="#003a4e"/></linearGradient><linearGradient id="linear-gradient-5" x1="602.47" y1="118.53" x2="743.94" y2="118.53" xlink:href="#linear-gradient-4"/><linearGradient id="linear-gradient-6" x1="602.47" y1="106.94" x2="743.94" y2="106.94" xlink:href="#linear-gradient-4"/><linearGradient id="linear-gradient-7" x1="-6475.62" y1="102.26" x2="-6577.3" y2="102.26" gradientTransform="matrix(-1 0 0 1 -5968.59 0)" gradientUnits="userSpaceOnUse"><stop offset="0" stop-color="#003a4e"/><stop offset=".44" stop-color="#00a3c8"/><stop offset=".53" stop-color="#00a0c4"/><stop offset=".61" stop-color="#0096b9"/><stop offset=".69" stop-color="#0087a7"/><stop offset=".77" stop-color="#00708d"/><stop offset=".84" stop-color="#00546c"/><stop offset=".9" stop-color="#003a4e"/></linearGradient><linearGradient id="linear-gradient-8" x1="-6464.93" y1="66.27" x2="-6599.36" y2="66.27" gradientTransform="matrix(-1 0 0 1 -5968.59 0)" gradientUnits="userSpaceOnUse"><stop offset="0" stop-color="#003a4e"/><stop offset=".36" stop-color="#00a3c8"/><stop offset=".46" stop-color="#00a0c4"/><stop offset=".56" stop-color="#0096b9"/><stop offset=".65" stop-color="#0087a7"/><stop offset=".75" stop-color="#00708d"/><stop offset=".83" stop-color="#00546c"/><stop offset=".9" stop-color="#003a4e"/></linearGradient><linearGradient id="linear-gradient-9" x1="-6422.07" y1="43.07" x2="-6621.41" y2="43.07" xlink:href="#linear-gradient-7"/><linearGradient id="linear-gradient-10" x1="235.16" y1="118.77" x2="395.69" y2="118.77" gradientUnits="userSpaceOnUse"><stop offset="0" stop-color="#1c3a1c"/><stop offset=".39" stop-color="#84bd00"/></linearGradient><linearGradient id="linear-gradient-11" x1="98.4" y1="130.44" x2="223.28" y2="130.44" gradientUnits="userSpaceOnUse"><stop offset=".78" stop-color="#ef3340"/><stop offset="1" stop-color="#401412"/></linearGradient><linearGradient id="linear-gradient-12" x1="77.59" y1="165.11" x2="235.34" y2="165.11" gradientUnits="userSpaceOnUse"><stop offset=".78" stop-color="#ee4038"/><stop offset="1" stop-color="#351212"/></linearGradient><linearGradient id="linear-gradient-13" x1="74.68" y1="118.67" x2="235.35" y2="118.67" xlink:href="#linear-gradient-11"/><linearGradient id="linear-gradient-14" x1="51.02" y1="106.9" x2="247.07" y2="106.9" xlink:href="#linear-gradient-11"/><linearGradient id="linear-gradient-15" x1="211.64" y1="106.99" x2="419.31" y2="106.99" xlink:href="#linear-gradient-10"/><linearGradient id="linear-gradient-16" x1="258.77" y1="130.53" x2="372.22" y2="130.53" xlink:href="#linear-gradient-10"/><linearGradient id="linear-gradient-17" x1="407.48" y1="130.46" x2="520.97" y2="130.46" gradientUnits="userSpaceOnUse"><stop offset="0" stop-color="#1c3a1c"/><stop offset=".32" stop-color="#84bd00"/></linearGradient><linearGradient id="linear-gradient-18" x1="383.82" y1="164.93" x2="534.41" y2="164.93" gradientUnits="userSpaceOnUse"><stop offset="0" stop-color="#0c180f"/><stop offset=".32" stop-color="#8cc640"/></linearGradient><linearGradient id="linear-gradient-19" x1="383.79" y1="150.13" x2="544.45" y2="150.13" xlink:href="#linear-gradient-18"/><linearGradient id="linear-gradient-20" x1="383.79" y1="118.69" x2="544.43" y2="118.69" xlink:href="#linear-gradient-17"/><linearGradient id="linear-gradient-21" x1="360.32" y1="106.92" x2="567.9" y2="106.92" xlink:href="#linear-gradient-17"/><linearGradient id="linear-gradient-22" x1="360.32" y1="149.72" x2="567.93" y2="149.72" xlink:href="#linear-gradient-18"/><linearGradient id="linear-gradient-23" x1="346.15" y1="103.81" x2="553.75" y2="103.81" xlink:href="#linear-gradient-18"/></defs><path d="M618.6 91.58a116.51 116.51 0 0 0-5.68 16 91.91 91.91 0 0 1 6 31.71 102.78 102.78 0 0 1 5.93-33.59 105.91 105.91 0 0 0-6.25-14.12z" transform="translate(-14.17 -16.99)" fill="url(#linear-gradient)"/><path d="M630.83 92a106.29 106.29 0 0 1 7.59-12.37Q635.49 74 632 68.7a113.06 113.06 0 0 0-7.44 11.18A117.34 117.34 0 0 1 630.83 92z" transform="translate(-14.17 -16.99)" fill="url(#linear-gradient-2)"/><path d="M636.6 108a117.83 117.83 0 0 1 4.4 31.18 79.81 79.81 0 0 1 7.83-32.18 128.47 128.47 0 0 0-4.67-14.67A94.22 94.22 0 0 0 636.6 108z" transform="translate(-14.17 -16.99)" fill="url(#linear-gradient-3)"/><path d="M736.66 63.44h-25.9c-25.79 0-49.93 18.37-61.93 43.53a79.83 79.83 0 0 0-7.83 32.21v51.68a5.95 5.95 0 0 0 11.9 0v-49.44c0-34 28.15-66.09 57.93-66.09h25.91a5.95 5.95 0 1 0 0-11.9z" transform="translate(-14.17 -16.99)" fill="url(#linear-gradient-4)"/><path d="M736.69 40.26H709c-27.89 0-53.77 15.75-70.58 39.35a106.41 106.41 0 0 0-13.59 26.13 102.78 102.78 0 0 0-5.93 33.59v51.53a5.95 5.95 0 1 0 11.9 0V140a91.85 91.85 0 0 1 5.82-32 94.22 94.22 0 0 1 7.56-15.72c14.32-23.8 38.56-40.14 64.83-40.14h27.7a5.95 5.95 0 1 0 0-11.9z" transform="translate(-14.17 -16.99)" fill="url(#linear-gradient-5)"/><path d="M736.73 17.08h-29.5c-32.37 0-62 16.3-82.41 41.67a123.55 123.55 0 0 0-7.45 10.31q-3.31 5.1-6.14 10.55a128.53 128.53 0 0 0-14.41 59v52.26a5.95 5.95 0 1 0 11.9 0V138.6a117.7 117.7 0 0 1 9.88-47 115.28 115.28 0 0 1 6-11.69A113.06 113.06 0 0 1 632 68.7C650.27 44.59 677.46 29 707.23 29h29.49a5.95 5.95 0 1 0 0-11.9z" transform="translate(-14.17 -16.99)" fill="url(#linear-gradient-6)"/><path d="M600.77 107.11c-12-25.2-36.12-43.68-61.89-43.68h-24.23l5 11.9h19.22c29.74 0 57.86 31.82 57.93 65.74v-2.47a128.07 128.07 0 0 1 3.97-31.49z" transform="translate(-14.17 -16.99)" fill="url(#linear-gradient-7)"/><path d="M540.65 40.26h-37.37a58.77 58.77 0 0 1 6.25 11.05l.36.85h30.76c26.27 0 50.5 16.33 64.84 40.13a127.75 127.75 0 0 1 5.74-12.67C594.42 56 568.54 40.26 540.65 40.26z" transform="translate(-14.17 -16.99)" fill="url(#linear-gradient-8)"/><path d="M542.41 17.08h-83.4A56.09 56.09 0 0 1 492.45 29h50c29.63 0 56.71 15.84 75 40.08a123.55 123.55 0 0 1 7.45-10.31c-20.49-25.39-50.12-41.69-82.49-41.69z" transform="translate(-14.17 -16.99)" fill="url(#linear-gradient-9)"/><path d="M241.11 196.81a5.94 5.94 0 0 1-5.47-8.24l53.27-126.25a34.24 34.24 0 0 1 31.94-21.58h.46a35 35 0 0 1 32.57 21.54l41.35 98.08a5.95 5.95 0 1 1-11 4.62l-41.33-98a23.27 23.27 0 0 0-21.66-14.31H321c-7.47.09-16.93 3.87-21.08 14.21l-53.33 126.29a6 6 0 0 1-5.48 3.64z" transform="translate(-14.17 -16.99)" fill="url(#linear-gradient-10)"/><path d="M212.11 188.53l5.49-13-42.85-102.6a14.3 14.3 0 0 0-13.07-8.86h-.27a15.16 15.16 0 0 0-13.81 8.87L98.87 188.55a5.95 5.95 0 1 0 11 4.62l48.61-115.42a3.23 3.23 0 0 1 3-1.78 2.37 2.37 0 0 1 2.31 1.57l48.06 115c.05.13.13.24.2.36a5.91 5.91 0 0 1 .06-4.37z" transform="translate(-14.17 -16.99)" fill="url(#linear-gradient-11)"/><path d="M234.92 165.05v.11z" transform="translate(-14.17 -16.99)" fill="url(#linear-gradient-12)"/><path d="M193.52 62.07a34.9 34.9 0 0 0-33-21.54 34.3 34.3 0 0 0-32 21.58L75.15 188.55a6 6 0 0 0 11 4.63l53.4-126.53c4.18-10.35 13.66-14.13 21.14-14.22h.26a23.27 23.27 0 0 1 21.66 14.3l40.37 96.12 6.46-15.33z" transform="translate(-14.17 -16.99)" fill="url(#linear-gradient-13)"/><path d="M212.3 51.24A55.79 55.79 0 0 0 159.51 17c-22.72.37-41.93 13.56-50.09 34.29L51.49 188.55a5.95 5.95 0 1 0 11 4.62l58-137.39c6.41-16.3 21.46-26.6 39.27-26.89 14.35-.16 32.91 6.75 41.65 27l33.35 79 6.45-15.31z" transform="translate(-14.17 -16.99)" fill="url(#linear-gradient-14)"/><path d="M217.59 196.79a5.95 5.95 0 0 1-5.48-8.26l57.79-137c8.16-20.77 27.37-33.96 50.1-34.33a55.8 55.8 0 0 1 52.79 34.25l46.07 108.87a5.95 5.95 0 1 1-11 4.62l-46-108.83a43.85 43.85 0 0 0-41.65-27C302.4 29.4 287.36 39.7 280.95 56l-57.87 137.15a6 6 0 0 1-5.49 3.64z" transform="translate(-14.17 -16.99)" fill="url(#linear-gradient-15)"/><path d="M264.71 196.79a5.95 5.95 0 0 1-5.48-8.26l48.68-115.39a14.9 14.9 0 0 1 13.92-8.87A14.29 14.29 0 0 1 335 73.14l36.78 87.19a5.95 5.95 0 0 1-11 4.63L324 77.76a2.39 2.39 0 0 0-2.33-1.59 3.2 3.2 0 0 0-2.87 1.73l-48.6 115.25a5.94 5.94 0 0 1-5.49 3.64z" transform="translate(-14.17 -16.99)" fill="url(#linear-gradient-16)"/><path d="M418.45 165.69a6 6 0 0 0 .46-.86l36.66-87.07a3.08 3.08 0 0 1 2.84-1.76 2.38 2.38 0 0 1 2.33 1.6l48.76 115.52a5.95 5.95 0 0 0 11-4.63L471.74 73a14.29 14.29 0 0 0-13.15-8.86A15.06 15.06 0 0 0 444.67 73l-31.31 74.35 5.48 13a5.93 5.93 0 0 1-.39 5.34z" transform="translate(-14.17 -16.99)" fill="url(#linear-gradient-17)"/><path d="M384.25 165v-.07z" transform="translate(-14.17 -16.99)" fill="url(#linear-gradient-18)"/><path d="M389.74 147.37l5.48 13a5.93 5.93 0 0 1-.31 5.2c.1-.19.22-.37.31-.57l6.33-15-6.47-15.28z" transform="translate(-14.17 -16.99)" fill="url(#linear-gradient-19)"/><path d="M436.66 66.71c4.15-10.34 13.61-14.12 21.08-14.21a23.48 23.48 0 0 1 21.95 14.3L533 193.15a5.95 5.95 0 1 0 11-4.62L490.63 62.14a34.92 34.92 0 0 0-33-21.54 34.24 34.24 0 0 0-31.94 21.58l-24.13 57.23 6.44 15.28z" transform="translate(-14.17 -16.99)" fill="url(#linear-gradient-20)"/><path d="M567.43 188.51l-57.9-137.2a55.9 55.9 0 0 0-52.79-34.25c-22.72.37-41.93 13.56-50.09 34.29l-16.91 40.18 6.47 15.29 21.47-51c6.42-16.3 21.46-26.6 39.27-26.89 14.52-.21 32.91 6.76 41.65 27l57.88 137.16a5.95 5.95 0 0 0 11-4.62z" transform="translate(-14.17 -16.99)" fill="url(#linear-gradient-21)"/><path d="M366.25 147.29l5.5 13a5.91 5.91 0 0 1 .1 4.33L378 150.1l-6.46-15.32z" transform="translate(-14.17 -16.99)" fill="url(#linear-gradient-22)"/><path fill="url(#linear-gradient-23)" d="M375.59 105.13l-6.47-15.29-5.32 12.63 6.46 15.31 5.33-12.65z"/><path class="cls-24" d="M143.29 253.88a6.33 6.33 0 0 0 2.07-4.93 6.21 6.21 0 0 0-2.48-5.25c-1.51-1.06-3.54-1.3-5.93-1.3h-1.27v13.16H137c3 0 5-.56 6.29-1.68zm-30.88-6.67a2.22 2.22 0 0 0 1.21-2.15 2.1 2.1 0 0 0-1.21-2.1 8 8 0 0 0-3.51-.56h-1.8v5.31h2.36a6.73 6.73 0 0 0 2.95-.5zM88 255.74a6.76 6.76 0 1 0-6.48-6.74 6.51 6.51 0 0 0 6.48 6.74zm98.56-1.86a6.33 6.33 0 0 0 2.07-4.93 6.2 6.2 0 0 0-2.48-5.25c-1.51-1.06-3.54-1.3-5.93-1.3H179v13.16h1.3c2.99 0 4.94-.56 6.26-1.68zM27 249.1c-.62-1.68-1.39-3.81-1.95-5.43H25c-.56 1.62-1.33 3.75-2 5.55l-.86 2.27h5.75zm136.07 0c-.62-1.68-1.39-3.81-1.95-5.43h-.06c-.56 1.62-1.33 3.75-2 5.55l-.86 2.27h5.8z" transform="translate(-14.17 -16.99)"/><path d="M20.72 255.18h8.62l1.71 4.49h5l-8.66-21.37h-4.54l-8.68 21.36H19zm2.3-6c.68-1.8 1.45-3.93 2-5.55h.06c.56 1.62 1.33 3.75 1.95 5.43l.89 2.39h-5.75z" transform="translate(-14.17 -16.99)"/><path d="M50.7 242.67h4.69v-17.26h6.9v-4.1h-18.5v4.1h6.91v17.26z"/><path d="M107.1 251.22h2.1l5.4 8.44h5.4l-6-9a5.94 5.94 0 0 0 4.34-5.9 5.48 5.48 0 0 0-2.57-5 12.85 12.85 0 0 0-6.64-1.42h-6.7v21.36h4.69zm0-8.82h1.8a8 8 0 0 1 3.51.56 2.1 2.1 0 0 1 1.21 2.1 2.22 2.22 0 0 1-1.21 2.15 6.73 6.73 0 0 1-3 .5h-2.31zM46.42 260c3.42 0 6.17-1.27 7.67-3.42 1.21-1.71 1.65-4 1.65-7.26v-11h-4.51v11c0 2.24-.26 3.72-.92 4.72a4.16 4.16 0 0 1-3.78 1.77 4.31 4.31 0 0 1-3.89-1.86c-.62-1-.83-2.39-.83-4.66V238.3h-4.69v11.12c0 3 .44 5.37 1.59 7.08 1.51 2.22 4.29 3.5 7.71 3.5zM88 260a11 11 0 1 0-11.15-11A10.88 10.88 0 0 0 88 260zm0-17.76a6.76 6.76 0 1 1-6.48 6.76 6.51 6.51 0 0 1 6.48-6.78z" transform="translate(-14.17 -16.99)"/><path d="M195.89 238.57h-8.83v-5.08h7.32v-3.89h-7.32v-4.19h8.5v-4.1h-13.19v21.36h13.52v-4.1z"/><path d="M189.78 257a10.16 10.16 0 0 0 3.54-8.08 10 10 0 0 0-4.1-8.5c-2.21-1.53-5.17-2.15-9-2.15h-6v21.36H180c4.53.03 7.6-.82 9.78-2.63zM179 242.4h1.27c2.39 0 4.42.24 5.93 1.3a6.2 6.2 0 0 1 2.48 5.25 6.33 6.33 0 0 1-2.07 4.93c-1.33 1.15-3.27 1.68-6.32 1.68H179zM146.51 257a10.16 10.16 0 0 0 3.49-8 10 10 0 0 0-4.1-8.5c-2.21-1.53-5.16-2.15-9-2.15h-6v21.36h5.78c4.58-.05 7.64-.9 9.83-2.71zm-10.83-14.6h1.27c2.39 0 4.43.24 5.93 1.3a6.21 6.21 0 0 1 2.48 5.25 6.33 6.33 0 0 1-2.07 4.93C142 255 140 255.56 137 255.56h-1.3zm21.07 12.78h8.62l1.71 4.49h5l-8.68-21.36h-4.54l-8.68 21.36H155zm2.3-6c.68-1.8 1.45-3.93 2-5.55h.06c.56 1.62 1.33 3.75 1.95 5.43l.89 2.39h-5.75z" transform="translate(-14.17 -16.99)"/><path d="M107.86 221.31h4.69v21.36h-4.69z"/><path class="cls-24" d="M611.74 243.67h-.06c-.56 1.62-1.33 3.75-2 5.55l-.86 2.27h5.76l-.89-2.39c-.62-1.68-1.39-3.81-1.95-5.43zm-87.35-1.45a6.76 6.76 0 1 0 6.46 6.76 6.51 6.51 0 0 0-6.46-6.76zM504 243.7c-1.51-1.06-3.54-1.3-5.93-1.3h-1.27v13.16h1.3c3 0 5-.53 6.32-1.68a6.33 6.33 0 0 0 2.07-4.93 6.21 6.21 0 0 0-2.49-5.25zm172.05-.86a9.38 9.38 0 0 0-3.66-.44h-1.59v5.81h1.71a7.8 7.8 0 0 0 3.72-.53 2.51 2.51 0 0 0 1.33-2.33 2.55 2.55 0 0 0-1.51-2.51zm-83.85.16a8 8 0 0 0-3.51-.56h-1.8v5.31h2.36a6.73 6.73 0 0 0 3-.5 2.22 2.22 0 0 0 1.21-2.15 2.1 2.1 0 0 0-1.26-2.1zm127.51 0a8 8 0 0 0-3.51-.56h-1.8v5.31h2.36a6.73 6.73 0 0 0 3-.5 2.22 2.22 0 0 0 1.21-2.15 2.1 2.1 0 0 0-1.26-2.1zm-24.43-.78a6.76 6.76 0 1 0 6.46 6.76 6.51 6.51 0 0 0-6.46-6.76z" transform="translate(-14.17 -16.99)"/><path d="M678.8 239.42a13.66 13.66 0 0 0-6.34-1.12h-6.34v21.36h4.69V252h1.48c3.13 0 5.25-.35 6.9-1.33a6.51 6.51 0 0 0-.38-11.27zm-2.57 8.26a7.8 7.8 0 0 1-3.72.53h-1.71v-5.81h1.59a9.38 9.38 0 0 1 3.66.44 2.55 2.55 0 0 1 1.51 2.51 2.51 2.51 0 0 1-1.33 2.33zm-66.73-9.38l-8.68 21.36h4.81l1.74-4.49H616l1.71 4.49h5L614 238.3zm-.68 13.19l.86-2.27c.68-1.8 1.45-3.93 2-5.55h.06c.56 1.62 1.33 3.75 1.95 5.43l.89 2.39zm30.91-5.25c0 2.07 0 4.13.06 6.17h-.06c-1.33-1.86-2.63-3.66-4-5.52l-6.4-8.61h-4.43v21.36h4.52v-7.94c0-2.07 0-4.13-.06-6.17h.06c1.33 1.86 2.63 3.66 4 5.52l6.4 8.62h4.43V238.3h-4.51z" transform="translate(-14.17 -16.99)"/><path d="M458.74 233.49h7.31v-3.89h-7.31v-4.19h8.5v-4.1h-13.2v21.36h13.52v-4.1h-8.82v-5.08zm280.17 0h7.32v-3.89h-7.32v-4.19h8.5v-4.1h-13.19v21.36h13.52v-4.1h-8.83v-5.08z"/><path d="M695.28 238a11 11 0 1 0 11.15 11 10.88 10.88 0 0 0-11.15-11zm0 17.76a6.76 6.76 0 1 1 6.46-6.76 6.51 6.51 0 0 1-6.46 6.74zm78.43-8.76c-2.57-.86-4.54-1-4.54-2.89 0-1.42 1.15-2 2.74-2a13.55 13.55 0 0 1 6.55 2.07v-4.63a14.72 14.72 0 0 0-6.52-1.54c-4.49 0-7.5 2.48-7.5 6.46 0 3.72 2.66 5.17 5.61 6.14 2.74.89 4.75 1.06 4.75 3 0 1.59-1.27 2.27-3 2.27a13.48 13.48 0 0 1-6.82-2.21v4.75a15.71 15.71 0 0 0 6.76 1.56c4.6 0 7.76-2.51 7.76-6.67.03-3.77-2.57-5.31-5.79-6.31z" transform="translate(-14.17 -16.99)"/><path d="M713.39 225.41h6.91v17.26h4.69v-17.26h6.91v-4.1h-18.51v4.1z"/><path d="M725.61 244.73a5.48 5.48 0 0 0-2.57-5 12.85 12.85 0 0 0-6.64-1.42h-6.7v21.36h4.69v-8.44h2.1l5.4 8.44h5.4l-6-9a5.94 5.94 0 0 0 4.32-5.94zm-5.9 2.48a6.73 6.73 0 0 1-3 .5h-2.31v-5.31h1.8a8 8 0 0 1 3.51.56 2.1 2.1 0 0 1 1.21 2.09 2.22 2.22 0 0 1-1.21 2.16zM657 247c-2.57-.86-4.55-1-4.55-2.89 0-1.42 1.15-2 2.74-2a13.55 13.55 0 0 1 6.55 2.07v-4.63a14.71 14.71 0 0 0-6.52-1.54c-4.48 0-7.49 2.48-7.49 6.46 0 3.72 2.66 5.17 5.61 6.14 2.74.89 4.75 1.06 4.75 3 0 1.59-1.27 2.27-3 2.27a13.49 13.49 0 0 1-6.82-2.21v4.75a15.72 15.72 0 0 0 6.83 1.58c4.6 0 7.76-2.51 7.76-6.67 0-3.79-2.6-5.33-5.86-6.33zm-150-6.55c-2.21-1.53-5.17-2.15-9-2.15h-6v21.36h5.78c4.49 0 7.55-.86 9.74-2.63a10.16 10.16 0 0 0 3.54-8.08 10 10 0 0 0-4.06-8.5zm-2.66 13.43c-1.33 1.15-3.27 1.68-6.32 1.68h-1.3V242.4H498c2.39 0 4.43.24 5.93 1.3a6.21 6.21 0 0 1 2.48 5.25 6.33 6.33 0 0 1-2.04 4.93zM524.39 238a11 11 0 1 0 11.15 11 10.88 10.88 0 0 0-11.15-11zm0 17.76a6.76 6.76 0 1 1 6.46-6.76 6.51 6.51 0 0 1-6.46 6.74z" transform="translate(-14.17 -16.99)"/><path d="M547.2 225.41h6.9v17.26h4.69v-17.26h6.91v-4.1h-18.5v4.1z"/><path d="M598.1 244.73a5.48 5.48 0 0 0-2.57-5 12.85 12.85 0 0 0-6.64-1.42h-6.7v21.36h4.69v-8.44H589l5.4 8.44h5.4l-6-9a5.94 5.94 0 0 0 4.3-5.94zm-5.9 2.48a6.73 6.73 0 0 1-3 .5h-2.36v-5.31h1.8a8 8 0 0 1 3.51.56 2.1 2.1 0 0 1 1.21 2.09 2.22 2.22 0 0 1-1.16 2.16zM547 247c-2.57-.86-4.55-1-4.55-2.89 0-1.42 1.15-2 2.74-2a13.55 13.55 0 0 1 6.55 2.07v-4.63a14.71 14.71 0 0 0-6.52-1.54c-4.48 0-7.49 2.48-7.49 6.46 0 3.72 2.66 5.17 5.61 6.14 2.74.89 4.75 1.06 4.75 3 0 1.59-1.27 2.27-3 2.27a13.49 13.49 0 0 1-6.82-2.21v4.75a15.72 15.72 0 0 0 6.76 1.56c4.6 0 7.76-2.51 7.76-6.67.04-3.77-2.56-5.31-5.79-6.31z" transform="translate(-14.17 -16.99)"/><path class="cls-24" d="M407.46 243.81h-.06c-.56 1.62-1.33 3.75-2 5.55l-.86 2.27h5.75l-.88-2.39c-.62-1.69-1.41-3.81-1.95-5.43zm-76.17 6.69h-2.8v5.28h1.74a10.15 10.15 0 0 0 3.54-.41 2.1 2.1 0 0 0 1.33-2.15c0-1.86-1.3-2.72-3.81-2.72zm-21.92-8.14a6.76 6.76 0 1 0 6.46 6.76 6.51 6.51 0 0 0-6.46-6.76zm24.87 2.48a2 2 0 0 0-1-1.86 7.33 7.33 0 0 0-3.3-.53h-1.45v4.84H331c1.88 0 3.24-.71 3.24-2.45zm-79.32 4.4c-.62-1.68-1.39-3.81-1.95-5.43h-.06c-.56 1.62-1.33 3.75-2 5.55l-.86 2.27h5.76zm134.3-5.4c-1.51-1.06-3.54-1.3-5.93-1.3H382v13.16h1.3c3 0 5-.53 6.31-1.68a6.33 6.33 0 0 0 2.07-4.93 6.2 6.2 0 0 0-2.46-5.25zm43.27 0c-1.51-1.06-3.54-1.3-5.93-1.3h-1.27v13.16h1.3c3 0 5-.53 6.32-1.68a6.33 6.33 0 0 0 2.07-4.93 6.21 6.21 0 0 0-2.49-5.25zm-197.76 0c-1.51-1.06-3.54-1.3-5.93-1.3h-1.27v13.16h1.3c3 0 5-.53 6.32-1.68a6.33 6.33 0 0 0 2.07-4.93 6.21 6.21 0 0 0-2.49-5.25z" transform="translate(-14.17 -16.99)"/><path d="M383.31 238.44h-6v21.36h5.78c4.49 0 7.55-.86 9.74-2.63a10.16 10.16 0 0 0 3.54-8.08 10 10 0 0 0-4.1-8.5c-2.2-1.53-5.15-2.15-8.96-2.15zm6.32 15.56c-1.33 1.15-3.27 1.68-6.31 1.68H382v-13.14h1.27c2.39 0 4.42.24 5.93 1.3a6.2 6.2 0 0 1 2.48 5.25 6.33 6.33 0 0 1-2.05 4.91z" transform="translate(-14.17 -16.99)"/><path d="M442.23 238.71h-8.83v-5.08h7.32v-3.89h-7.32v-4.2h8.5v-4.1h-13.19v21.37h13.52v-4.1zm-113.31-17.27h4.69v21.36h-4.69zm25.28 0h4.69v21.36h-4.69zm-16.32 0v21.37h14.04v-4.1h-9.35v-17.27h-4.69z"/><path d="M405.22 238.44l-8.67 21.36h4.81l1.74-4.49h8.62l1.71 4.49h5l-8.67-21.36zm-.68 13.19l.86-2.27c.68-1.8 1.45-3.93 2-5.55h.06c.56 1.62 1.33 3.75 1.95 5.43l.88 2.39zm31.02-11.04c-2.21-1.53-5.16-2.15-9-2.15h-6v21.36h5.79c4.49 0 7.55-.86 9.74-2.63a10.16 10.16 0 0 0 3.54-8.08 10 10 0 0 0-4.07-8.5zM432.9 254c-1.33 1.15-3.28 1.68-6.32 1.68h-1.3v-13.14h1.27c2.39 0 4.43.24 5.93 1.3a6.21 6.21 0 0 1 2.48 5.25 6.33 6.33 0 0 1-2.06 4.91zm-142.65 5.8h4.69v-21.36h-4.46l-6.34 9-6.34-9h-4.51v21.36h4.51v-8.56c0-1.77 0-3.78-.06-5.31h.06c1 1.51 2.07 3.07 3.13 4.57l3.1 4.4 3.1-4.4c1.06-1.51 2.12-3.07 3.13-4.57h.06c0 1.54-.06 3.54-.06 5.31zm-41.64-4.49h8.62l1.71 4.49h5l-8.67-21.36h-4.54l-8.68 21.36h4.81zm2.3-6c.68-1.8 1.45-3.93 2-5.55h.09c.56 1.62 1.33 3.75 1.95 5.43l.89 2.39h-5.76zm-13.11-8.72c-2.21-1.53-5.16-2.15-9-2.15h-6v21.36h5.78c4.49 0 7.55-.86 9.74-2.63a10.16 10.16 0 0 0 3.54-8.08 10 10 0 0 0-4.06-8.5zM235.15 254c-1.33 1.15-3.28 1.68-6.32 1.68h-1.3v-13.14h1.27c2.39 0 4.42.24 5.93 1.3a6.21 6.21 0 0 1 2.48 5.25 6.33 6.33 0 0 1-2.06 4.91zm104.64-.63c0-2.63-1.36-4.4-4.07-5.19v-.06a4.34 4.34 0 0 0 3.22-4.34 4.46 4.46 0 0 0-2.42-4.13 13.79 13.79 0 0 0-6.49-1.21h-6.23v21.36h6.34a15.79 15.79 0 0 0 5.58-.83 5.69 5.69 0 0 0 4.07-5.6zm-11.3-10.92h1.45a7.33 7.33 0 0 1 3.3.53 2 2 0 0 1 1 1.86c0 1.74-1.36 2.45-3.28 2.45h-2.48zm5.28 12.93a10.15 10.15 0 0 1-3.54.41h-1.74v-5.29h2.8c2.51 0 3.81.86 3.81 2.71a2.1 2.1 0 0 1-1.33 2.16zm-13.24-6.26a11.16 11.16 0 1 0-11.15 11 10.88 10.88 0 0 0 11.15-11zm-11.15 6.76a6.76 6.76 0 1 1 6.46-6.76 6.51 6.51 0 0 1-6.47 6.75z" transform="translate(-14.17 -16.99)"/></svg>