<svg id="Camada_1" data-name="Camada 1" xmlns="http://www.w3.org/2000/svg" viewBox="0 0 1641 672"><defs><style>.cls-1,.cls-3{opacity:0.2;}.cls-2,.cls-3{fill:#003038;}.cls-4{fill:#55dbc2;}.cls-5{fill:#2a2c2d;}.cls-11,.cls-6{fill:#fcfcfc;}.cls-7{fill:#f7941e;}.cls-14,.cls-8{fill:#666;}.cls-14,.cls-15,.cls-16,.cls-17,.cls-18,.cls-19,.cls-8{stroke:#302d2d;}.cls-10,.cls-11,.cls-12,.cls-8{stroke-miterlimit:10;}.cls-9{fill:#a6a6a6;}.cls-10,.cls-15{fill:none;}.cls-10,.cls-11,.cls-12{stroke:#231f20;}.cls-12,.cls-16{fill:#fff;}.cls-13,.cls-19{fill:#f7931e;}.cls-14,.cls-15,.cls-16,.cls-17,.cls-18,.cls-19{stroke-linecap:round;stroke-linejoin:round;}.cls-17{fill:#697271;}.cls-18{fill:#f5f5f5;}</style></defs><title>amt-bg</title><g class="cls-1"><polygon class="cls-2" points="1410.1 477.24 1413.11 477.24 1416.13 477.24 1416.13 385.63 1410.1 385.63 1410.1 477.24"/><path class="cls-2" d="M1602.84,459.24a14.63,14.63,0,0,0-3,29v9.43H1572V334.41h-47.39V310.3h-12.05V275.91l-18.08-18.08V241h-6v16.83l-18.08,18.08V310.3h-12.05V347l-65.1,18.31V497.63h-32.86v5.63h281v-5.63h-35.51V488.2a14.63,14.63,0,0,0-3-29Zm-117.4,37.88V479a6,6,0,1,1,12.05,0v18.08Zm39.17-156.69H1566V497.12h-41.37Zm-48.21-62h0l15.07-15.07,15.07,15.07v31.9h-6.2V300.7h-5.67v9.61h-6.38V300.7h-5.67v9.61h-6.2Zm-12,37.92h54.24V497.12h-15.07V479a12.05,12.05,0,0,0-24.11,0v18.08h-15.07Zm-65.1,53.51,58.26-16.39V497.12h-58.26Zm203.59,112.65a8.61,8.61,0,1,1,8.61-8.61A8.62,8.62,0,0,1,1602.84,482.49Z"/><rect class="cls-2" x="1529.83" y="457.95" width="6.03" height="6.03"/><rect class="cls-2" x="1529.83" y="476.03" width="6.03" height="6.03"/><rect class="cls-2" x="1541.88" y="457.95" width="6.03" height="6.03"/><rect class="cls-2" x="1541.88" y="476.03" width="6.03" height="6.03"/><rect class="cls-2" x="1553.93" y="457.95" width="6.03" height="6.03"/><rect class="cls-2" x="1553.93" y="476.03" width="6.03" height="6.03"/><rect class="cls-2" x="1529.83" y="409.74" width="6.03" height="6.03"/><rect class="cls-2" x="1529.83" y="421.79" width="6.03" height="6.03"/><rect class="cls-2" x="1529.83" y="433.84" width="6.03" height="6.03"/><rect class="cls-2" x="1541.88" y="409.74" width="6.03" height="6.03"/><rect class="cls-2" x="1541.88" y="433.84" width="6.03" height="6.03"/><rect class="cls-2" x="1541.88" y="445.9" width="6.03" height="6.03"/><rect class="cls-2" x="1553.93" y="409.74" width="6.03" height="6.03"/><rect class="cls-2" x="1553.93" y="421.79" width="6.03" height="6.03"/><rect class="cls-2" x="1553.93" y="433.84" width="6.03" height="6.03"/><rect class="cls-2" x="1553.93" y="445.9" width="6.03" height="6.03"/><rect class="cls-2" x="1541.88" y="337.42" width="6.03" height="24.11" transform="translate(1179.18 1890.61) rotate(-89.4)"/><rect class="cls-2" x="1532.84" y="358.51" width="24.11" height="6.03"/><rect class="cls-2" x="1532.84" y="370.57" width="24.11" height="6.03"/><rect class="cls-2" x="1532.84" y="382.62" width="24.11" height="6.03"/><rect class="cls-2" x="1532.84" y="394.67" width="24.11" height="6.03"/><rect class="cls-2" x="1494.66" y="283.18" width="5.67" height="11.68"/><path class="cls-2" d="M1506,329.64h-10.54v17.58H1506Zm-3.51,14.06H1499V333.15h3.52Z"/><path class="cls-2" d="M1506,350.73h-10.54v17.58H1506Zm-3.51,14.06H1499V354.25h3.52Z"/><path class="cls-2" d="M1506,371.82h-10.54V389.4H1506Zm-3.51,14.06H1499V375.34h3.52Z"/><path class="cls-2" d="M1505.53,393.92H1495V411.5h10.54ZM1502,408h-3.52V397.44H1502Z"/><path class="cls-2" d="M1505.53,415H1495v17.58h10.54ZM1502,429.07h-3.52V418.53H1502Z"/><path class="cls-2" d="M1505,439.12h-10.55v17.58H1505Zm-3.51,14.06H1498V442.63h3.52Z"/><polygon class="cls-2" points="1441.44 477.24 1444.45 477.24 1447.46 477.24 1447.46 373.58 1441.44 373.58 1441.44 477.24"/><polygon class="cls-2" points="1425.77 477.24 1428.78 477.24 1431.8 477.24 1431.8 379.61 1425.77 379.61 1425.77 477.24"/><rect class="cls-2" x="1482.61" y="283.18" width="5.67" height="11.68"/><path class="cls-2" d="M1488.46,329.64h-10.55v17.58h10.55Zm-3.51,14.06h-3.52V333.15h3.52Z"/><path class="cls-2" d="M1488.46,350.73h-10.55v17.58h10.55Zm-3.51,14.06h-3.52V354.25h3.52Z"/><path class="cls-2" d="M1488.46,371.82h-10.55V389.4h10.55Zm-3.51,14.06h-3.52V375.34h3.52Z"/><path class="cls-2" d="M1488,393.92h-10.54V411.5H1488ZM1484.44,408h-3.52V397.44h3.52Z"/><path class="cls-2" d="M1488,415h-10.54v17.58H1488Zm-3.51,14.06h-3.52V418.53h3.52Z"/><path class="cls-2" d="M1487.45,439.12h-10.54v17.58h10.54Zm-3.51,14.06h-3.52V442.63h3.52Z"/></g><path class="cls-3" d="M1341.34,497.25v-6.8h2.07a14.8,14.8,0,0,0,14.79-14.79v-2.59h-17.74V458.62a6.28,6.28,0,1,1,8.41,5.92,2.59,2.59,0,1,0,1.75,4.87,11.46,11.46,0,1,0-15.34-10.79v14.46h-2V447.42a11.46,11.46,0,1,0-15.34,10.79,2.59,2.59,0,1,0,1.75-4.87,6.29,6.29,0,1,1,8.41-5.92v25.67h-17.74v2.59a14.8,14.8,0,0,0,14.79,14.79h2v6.8h-34.44v-189h-54.36v24.4h-6.63V283.84h-42.16v48.79h-12.2v18.3H1097.8V497.25h-20.21v6h282.77v-6Zm-197.53,0h-8.38V480.58a4.19,4.19,0,0,1,8.38,0Zm32.06,0h-26.49V480.58a9.76,9.76,0,0,0-19.52,0v16.68h-26.49V376h72.5S1175.87,494.85,1175.87,497.25Zm0-126.8h-72.5V356.5h72.5Zm19.19-81h31v43.22h-31m43.22,164.62h-55.42V338.2h55.42Zm33.55,0H1259.1v-18.5a6.36,6.36,0,1,1,12.73,0S1271.83,496.14,1271.83,497.25Zm15.25,0h-9.68v-18.5a11.93,11.93,0,1,0-23.86,0v18.5h-9.68V326h43.23Zm0-176.82h-43.23v-6.63h43.23Zm49.08,176.82h-3.9v-6.79h3.9Zm-11.05-12a9.66,9.66,0,0,1-9.26-7h36.81a9.66,9.66,0,0,1-9.26,7ZM1256,341.52h-5.57v12.2H1256Zm12.2,0h-5.57v12.2h5.57Zm12.2,0h-5.57v12.2h5.57Zm-24.4,18.3h-5.57V372H1256Zm12.2,0h-5.57V372h5.57Zm12.2,0h-5.57V372h5.57Zm-24.4,18.3h-5.57v12.2H1256Zm12.2,0h-5.57v12.2h5.57Zm12.2,0h-5.57v12.2h5.57Zm-24.4,18.3h-5.57v12.2H1256Zm12.2,0h-5.57v12.2h5.57Zm12.2,0h-5.57v12.2h5.57Zm-24.4,18.3h-5.57v12.2H1256Zm12.2,0h-5.57v12.2h5.57Zm12.2,0h-5.57v12.2h5.57ZM1256,433h-5.57v12.2H1256Zm12.2,0h-5.57v12.2h5.57Zm12.2,0h-5.57v12.2h5.57Zm-78.76-122h5.57v-12.2h-5.57Zm12.2,0h5.57v-12.2h-5.57Zm-12.2,18.3h5.57v-12.2h-5.57Zm12.2,0h5.57v-12.2h-5.57Zm-.53,97.59h-5.57v12.2h5.57Zm0,24.4h-5.57v12.2h5.57Zm0,24.4h-5.57v12.2h5.57Zm0-122h-5.57v12.2h5.57Zm0,24.39h-5.57v12.2h5.57Zm0,24.4h-5.57v12.2h5.57Zm-18.3,24.4h-5.57v12.2h5.57Zm0,24.4h-5.57v12.2h5.57Zm0,24.4h-5.57v12.2h5.57Zm0-122h-5.57v12.2h5.57Zm0,24.39h-5.57v12.2h5.57Zm0,24.4h-5.57v12.2h5.57Zm36.6,24.4h-5.57v12.2h5.57Zm0,27.18V451.3h-5.57v12.2h5.57Zm0,21.61h-5.57v12.2h5.57Zm0-122h-5.57v12.2h5.57Zm0,24.39h-5.57v12.2h5.57Zm0,24.4h-5.57v12.2h5.57ZM1117.32,383v19.52h5.57V383Zm25.08,0h-5.57v19.52h5.57Zm19.52,0h-5.57v19.52h5.57Zm-44.6,48.79h5.57V412.27h-5.57Zm25.08-19.52h-5.57v19.52h5.57Zm19.52,0h-5.57v19.52h5.57Zm-44.6,52.45h5.57V445.2h-5.57Zm25.08-19.52h-5.57v19.52h5.57Zm19.52,0h-5.57v19.52h5.57Zm33.14-112.57V289.41m127.25,154.92a3.22,3.22,0,1,0,3.22,3.22A3.22,3.22,0,0,0,1322.31,444.34Zm27.89,14.18a3.27,3.27,0,1,0-3.27,3.27A3.27,3.27,0,0,0,1350.2,458.51Z"/><g class="cls-1"><path class="cls-2" d="M925.28,310.3h-6.05V274.41H865.83V497.63H828V488.2a14.64,14.64,0,1,0-6,0v9.43h-5.51v5.63h261v-5.63h-32.86V348.27L979.52,347V310.3M940.35,497.12V479a6,6,0,1,1,12.05,0v18.08Zm-27.12,0H871.86V280.44h41.37Zm60.26,0H958.43V479a12.05,12.05,0,0,0-24.11,0v18.08H919.25V316.33h54.24Zm65.1,0H980.33V353.45l58.26,1.39Zm-222.2-23.24a8.61,8.61,0,1,1,8.61,8.61A8.62,8.62,0,0,1,816.39,473.88Z"/><path class="cls-2" d="M931.81,347.22h10.54V329.64H931.81Z"/><path class="cls-2" d="M931.81,368.31h10.54V350.73H931.81Z"/><path class="cls-2" d="M931.81,389.4h10.54V371.82H931.81Z"/><path class="cls-2" d="M932.31,411.5h10.54V393.92H932.31Z"/><path class="cls-2" d="M932.31,432.59h10.54V415H932.31Z"/><path class="cls-2" d="M932.81,456.69h10.55V439.12H932.81Z"/><polygon class="cls-2" points="996.4 477.24 993.39 477.24 990.38 477.24 990.38 373.58 996.4 373.58 996.4 477.24"/><path class="cls-2" d="M949.39,347.22h10.55V329.64H949.39Z"/><path class="cls-2" d="M949.39,368.31h10.55V350.73H949.39Z"/><path class="cls-2" d="M949.39,389.4h10.55V371.82H949.39Z"/><path class="cls-2" d="M949.89,411.5h10.54V393.92H949.89Z"/><path class="cls-2" d="M949.89,432.59h10.54V415H949.89Z"/><path class="cls-2" d="M950.39,456.69h10.54V439.12H950.39Z"/><polygon class="cls-2" points="1012.4 477.24 1009.39 477.24 1006.38 477.24 1006.38 373.58 1012.4 373.58 1012.4 477.24"/><polygon class="cls-2" points="1027.4 477.24 1024.39 477.24 1021.38 477.24 1021.38 373.58 1027.4 373.58 1027.4 477.24"/><rect class="cls-2" x="880.9" y="356.46" width="24.11" height="6.03" transform="translate(-3.73 9.41) rotate(-0.6)"/><rect class="cls-2" x="880.9" y="368.51" width="24.11" height="6.03"/><rect class="cls-2" x="880.9" y="380.57" width="24.11" height="6.03"/><rect class="cls-2" x="880.9" y="392.62" width="24.11" height="6.03"/><rect class="cls-2" x="880.9" y="404.67" width="24.11" height="6.03"/><rect class="cls-2" x="880.9" y="296.46" width="24.11" height="6.03" transform="translate(-3.1 9.41) rotate(-0.6)"/><rect class="cls-2" x="880.9" y="308.51" width="24.11" height="6.03"/><rect class="cls-2" x="880.9" y="320.57" width="24.11" height="6.03"/><rect class="cls-2" x="880.9" y="332.62" width="24.11" height="6.03"/><rect class="cls-2" x="880.9" y="344.67" width="24.11" height="6.03"/><rect class="cls-2" x="880.9" y="416.46" width="24.11" height="6.03" transform="translate(-4.36 9.42) rotate(-0.6)"/><rect class="cls-2" x="880.9" y="428.51" width="24.11" height="6.03"/><rect class="cls-2" x="880.9" y="440.57" width="24.11" height="6.03"/><rect class="cls-2" x="880.9" y="452.62" width="24.11" height="6.03"/><rect class="cls-2" x="880.9" y="464.67" width="24.11" height="6.03"/></g><g class="cls-1"><polygon class="cls-2" points="768.63 477.24 765.62 477.24 762.6 477.24 762.6 385.63 768.63 385.63 768.63 477.24"/><path class="cls-2" d="M567.87,497.63H547.37v5.63h271v-5.63H785.5V365.27L720.41,347V270.3H708.35V232.91H666.17V270.3H654.12v64.11H606.72V497.63H573.9m107.33-.5V479a6,6,0,1,1,12.05,0v18.08Zm-27.12,0H612.74V340.44h41.37ZM702.33,270.3h-6.2V260.7h-5.67v9.61h-6.38V260.7H678.4v9.61h-6.2v-31.9h30.14Zm12,226.82H699.31V479a12.05,12.05,0,0,0-24.11,0v18.08H660.14V276.33h54.24Zm65.1,0H721.22V353.45l58.26,16.39Z"/><rect class="cls-2" x="678.4" y="243.18" width="5.67" height="11.68"/><path class="cls-2" d="M672.7,347.22h10.54V329.64H672.7Zm3.51-14.06h3.52V343.7h-3.52Z"/><path class="cls-2" d="M672.7,368.31h10.54V350.73H672.7Zm3.51-14.06h3.52v10.55h-3.52Z"/><path class="cls-2" d="M672.7,389.4h10.54V371.82H672.7Zm3.51-14.06h3.52v10.55h-3.52Z"/><path class="cls-2" d="M673.2,411.5h10.54V393.92H673.2Zm3.51-14.06h3.52V408h-3.52Z"/><path class="cls-2" d="M673.2,432.59h10.54V415H673.2Zm3.51-14.06h3.52v10.55h-3.52Z"/><path class="cls-2" d="M673.7,456.69h10.55V439.12H673.7Zm3.51-14.06h3.52v10.55h-3.52Z"/><polygon class="cls-2" points="737.29 477.24 734.28 477.24 731.27 477.24 731.27 373.58 737.29 373.58 737.29 477.24"/><polygon class="cls-2" points="752.96 477.24 749.95 477.24 746.93 477.24 746.93 379.61 752.96 379.61 752.96 477.24"/><rect class="cls-2" x="690.45" y="243.18" width="5.67" height="11.68"/><path class="cls-2" d="M690.27,347.22h10.55V329.64H690.27Zm3.51-14.06h3.52V343.7h-3.52Z"/><path class="cls-2" d="M690.27,368.31h10.55V350.73H690.27Zm3.51-14.06h3.52v10.55h-3.52Z"/><path class="cls-2" d="M672.7,304.22h10.54V286.64H672.7Zm3.51-14.06h3.52V300.7h-3.52Z"/><path class="cls-2" d="M672.7,325.31h10.54V307.73H672.7Zm3.51-14.06h3.52v10.55h-3.52Z"/><path class="cls-2" d="M690.27,304.22h10.55V286.64H690.27Zm3.51-14.06h3.52V300.7h-3.52Z"/><path class="cls-2" d="M690.27,325.31h10.55V307.73H690.27Zm3.51-14.06h3.52v10.55h-3.52Z"/><path class="cls-2" d="M690.27,389.4h10.55V371.82H690.27Zm3.51-14.06h3.52v10.55h-3.52Z"/><path class="cls-2" d="M690.78,411.5h10.54V393.92H690.78Zm3.51-14.06h3.52V408h-3.52Z"/><path class="cls-2" d="M690.78,432.59h10.54V415H690.78Zm3.51-14.06h3.52v10.55h-3.52Z"/><path class="cls-2" d="M691.28,456.69h10.54V439.12H691.28Zm3.51-14.06h3.52v10.55h-3.52Z"/><rect class="cls-2" x="618.48" y="352.52" width="5.57" height="12.2"/><rect class="cls-2" x="630.68" y="352.52" width="5.57" height="12.2"/><rect class="cls-2" x="642.88" y="352.52" width="5.57" height="12.2"/><rect class="cls-2" x="618.48" y="370.82" width="5.57" height="12.2"/><rect class="cls-2" x="630.68" y="370.82" width="5.57" height="12.2"/><rect class="cls-2" x="642.88" y="370.82" width="5.57" height="12.2"/><rect class="cls-2" x="618.48" y="389.11" width="5.57" height="12.2"/><rect class="cls-2" x="630.68" y="389.11" width="5.57" height="12.2"/><rect class="cls-2" x="642.88" y="389.11" width="5.57" height="12.2"/><rect class="cls-2" x="618.48" y="407.41" width="5.57" height="12.2"/><rect class="cls-2" x="630.68" y="407.41" width="5.57" height="12.2"/><rect class="cls-2" x="642.88" y="407.41" width="5.57" height="12.2"/><rect class="cls-2" x="618.48" y="425.71" width="5.57" height="12.2"/><rect class="cls-2" x="630.68" y="425.71" width="5.57" height="12.2"/><rect class="cls-2" x="642.88" y="425.71" width="5.57" height="12.2"/><rect class="cls-2" x="618.48" y="444.01" width="5.57" height="12.2"/><rect class="cls-2" x="630.68" y="444.01" width="5.57" height="12.2"/><rect class="cls-2" x="642.88" y="444.01" width="5.57" height="12.2"/><rect class="cls-2" x="618.48" y="463.01" width="5.57" height="12.2"/><rect class="cls-2" x="630.68" y="463.01" width="5.57" height="12.2"/><rect class="cls-2" x="642.88" y="463.01" width="5.57" height="12.2"/></g><path class="cls-3" d="M561.34,497.25v-6.8h2.07a14.8,14.8,0,0,0,14.79-14.79v-2.59H560.45V458.62a6.28,6.28,0,1,1,8.41,5.92,2.59,2.59,0,1,0,1.75,4.87,11.46,11.46,0,1,0-15.34-10.79v14.46h-2V447.42a11.46,11.46,0,1,0-15.34,10.79,2.59,2.59,0,1,0,1.75-4.87,6.29,6.29,0,1,1,8.41-5.92v25.67H530.32v2.59a14.8,14.8,0,0,0,14.79,14.79h2v6.8H502.65v-189H448.28v24.4h-6.63V283.84H399.49v48.79h-12.2v18.3H307.8V497.25H287.59l15,6H580.37l-15-6Zm-207.53,0h-8.38V480.58a4.19,4.19,0,0,1,8.38,0Zm32.06,0H359.38V480.58a9.76,9.76,0,0,0-19.52,0v16.68H313.37V376h72.5S385.87,494.85,385.87,497.25Zm0-126.8h-72.5V356.5h72.5Zm19.19-81h31v43.22h-31m43.22,164.62H392.86V338.2h55.42Zm33.55,0H469.1v-18.5a6.36,6.36,0,1,1,12.73,0S481.83,496.14,481.83,497.25Zm15.25,0H487.4v-18.5a11.93,11.93,0,1,0-23.86,0v18.5h-9.68V326h43.23Zm0-176.82H453.85v-6.63h43.23Zm59.08,176.82h-3.9v-6.79h3.9Zm-11.05-12a9.66,9.66,0,0,1-9.26-7h36.81a9.66,9.66,0,0,1-9.26,7ZM466,341.52h-5.57v12.2H466Zm12.2,0h-5.57v12.2h5.57Zm12.2,0h-5.57v12.2h5.57ZM466,359.82h-5.57V372H466Zm12.2,0h-5.57V372h5.57Zm12.2,0h-5.57V372h5.57ZM466,378.11h-5.57v12.2H466Zm12.2,0h-5.57v12.2h5.57Zm12.2,0h-5.57v12.2h5.57ZM466,396.41h-5.57v12.2H466Zm12.2,0h-5.57v12.2h5.57Zm12.2,0h-5.57v12.2h5.57ZM466,414.71h-5.57v12.2H466Zm12.2,0h-5.57v12.2h5.57Zm12.2,0h-5.57v12.2h5.57ZM466,433h-5.57v12.2H466Zm12.2,0h-5.57v12.2h5.57Zm12.2,0h-5.57v12.2h5.57ZM411.69,311h5.57v-12.2h-5.57Zm12.2,0h5.57v-12.2h-5.57Zm-12.2,18.3h5.57v-12.2h-5.57Zm12.2,0h5.57v-12.2h-5.57Zm-.53,97.59h-5.57v12.2h5.57Zm0,24.4h-5.57v12.2h5.57Zm0,24.4h-5.57v12.2h5.57Zm0-122h-5.57v12.2h5.57Zm0,24.39h-5.57v12.2h5.57Zm0,24.4h-5.57v12.2h5.57Zm-18.3,24.4h-5.57v12.2h5.57Zm0,24.4h-5.57v12.2h5.57Zm0,24.4h-5.57v12.2h5.57Zm0-122h-5.57v12.2h5.57Zm0,24.39h-5.57v12.2h5.57Zm0,24.4h-5.57v12.2h5.57Zm36.6,24.4h-5.57v12.2h5.57Zm0,27.18V451.3h-5.57v12.2h5.57Zm0,21.61h-5.57v12.2h5.57Zm0-122h-5.57v12.2h5.57Zm0,24.39h-5.57v12.2h5.57Zm0,24.4h-5.57v12.2h5.57ZM327.32,383v19.52h5.57V383Zm25.08,0h-5.57v19.52h5.57Zm19.52,0h-5.57v19.52h5.57Zm-44.6,48.79h5.57V412.27h-5.57Zm25.08-19.52h-5.57v19.52h5.57Zm19.52,0h-5.57v19.52h5.57Zm-44.6,52.45h5.57V445.2h-5.57ZM352.4,445.2h-5.57v19.52h5.57Zm19.52,0h-5.57v19.52h5.57Zm33.14-112.57V289.41M542.31,444.34a3.22,3.22,0,1,0,3.22,3.22A3.22,3.22,0,0,0,542.31,444.34Zm27.89,14.18a3.27,3.27,0,1,0-3.27,3.27A3.27,3.27,0,0,0,570.2,458.51Z"/><g class="cls-1"><path class="cls-2" d="M115.32,310.3V347l-65.1,1.31V497.63H-2.63v5.63h308v-5.63H272.86V488.2a14.64,14.64,0,1,0-6,0v9.43H229V274.41H175.61V310.3h-6.05M142.44,497.12V479a6,6,0,1,1,12.05,0v18.08Zm39.17-216.69H223V497.12H181.61Zm-60.26,35.89h54.24V497.12H160.52V479a12.05,12.05,0,0,0-24.11,0v18.08H121.35Zm-65.1,38.51,58.26-1.39V497.12H56.25ZM269.84,482.49a8.61,8.61,0,1,1,8.61-8.61A8.62,8.62,0,0,1,269.84,482.49Z"/><path class="cls-2" d="M163,329.64H152.49v17.58H163Z"/><path class="cls-2" d="M163,350.73H152.49v17.58H163Z"/><path class="cls-2" d="M163,371.82H152.49V389.4H163Z"/><path class="cls-2" d="M162.53,393.92H152V411.5h10.54Z"/><path class="cls-2" d="M162.53,415H152v17.58h10.54Z"/><path class="cls-2" d="M162,439.12H151.48v17.58H162Z"/><polygon class="cls-2" points="98.44 477.24 101.45 477.24 104.47 477.24 104.47 373.58 98.44 373.58 98.44 477.24"/><path class="cls-2" d="M145.46,329.64H134.91v17.58h10.55Z"/><path class="cls-2" d="M145.46,350.73H134.91v17.58h10.55Z"/><path class="cls-2" d="M145.46,371.82H134.91V389.4h10.55Z"/><path class="cls-2" d="M145,393.92H134.41V411.5H145Z"/><path class="cls-2" d="M145,415H134.41v17.58H145Z"/><path class="cls-2" d="M144.45,439.12H133.91v17.58h10.54Z"/><polygon class="cls-2" points="82.44 477.24 85.45 477.24 88.47 477.24 88.47 373.58 82.44 373.58 82.44 477.24"/><polygon class="cls-2" points="67.44 477.24 70.45 477.24 73.47 477.24 73.47 373.58 67.44 373.58 67.44 477.24"/><rect class="cls-2" x="198.88" y="347.42" width="6.03" height="24.11" transform="translate(-159.69 557.58) rotate(-89.4)"/><rect class="cls-2" x="189.84" y="368.51" width="24.11" height="6.03"/><rect class="cls-2" x="189.84" y="380.57" width="24.11" height="6.03"/><rect class="cls-2" x="189.84" y="392.62" width="24.11" height="6.03"/><rect class="cls-2" x="189.84" y="404.67" width="24.11" height="6.03"/><rect class="cls-2" x="198.88" y="287.42" width="6.03" height="24.11" transform="translate(-99.69 498.21) rotate(-89.4)"/><rect class="cls-2" x="189.84" y="308.51" width="24.11" height="6.03"/><rect class="cls-2" x="189.84" y="320.57" width="24.11" height="6.03"/><rect class="cls-2" x="189.84" y="332.62" width="24.11" height="6.03"/><rect class="cls-2" x="189.84" y="344.67" width="24.11" height="6.03"/><rect class="cls-2" x="198.88" y="407.42" width="6.03" height="24.11" transform="translate(-219.68 616.94) rotate(-89.4)"/><rect class="cls-2" x="189.84" y="428.51" width="24.11" height="6.03"/><rect class="cls-2" x="189.84" y="440.57" width="24.11" height="6.03"/><rect class="cls-2" x="189.84" y="452.62" width="24.11" height="6.03"/><rect class="cls-2" x="189.84" y="464.67" width="24.11" height="6.03"/></g><path class="cls-4" d="M286.08,500.09h40.74a5,5,0,0,0,4.4-2.65l15.13-30.32a3.43,3.43,0,0,0-3-5h-8.84l1.58-1.94a16.25,16.25,0,0,1,12.57-5.95h67.25a16.25,16.25,0,0,1,13.44,7.09l24,35.21a6.6,6.6,0,0,0,5.44,2.88,7.63,7.63,0,0,1,7.64,7.62v24h-9.5a2.56,2.56,0,0,0-2.56,2.56V546h-9.77a22.58,22.58,0,1,0-45.16,0h-73.5a22.58,22.58,0,1,0-45.16,0H269.4V533.58a2.56,2.56,0,0,0-2.56-2.56h-8.73v-3A28,28,0,0,1,286.08,500.09Zm95,0a5,5,0,0,0,5-5v-28a5,5,0,0,0-5-5H362.27a5,5,0,0,0-4.44,2.73l-14.28,28a5,5,0,0,0,4.44,7.26Zm-9,14.11h9.26a3.52,3.52,0,0,0,0-7h-9.26a3.52,3.52,0,0,0,0,7Zm26.78-14.11h38.67a4.36,4.36,0,0,0,3.58-6.87l-19.95-28.56a6,6,0,0,0-4.93-2.58H398.94a6,6,0,0,0-6,6V494A6,6,0,0,0,398.94,500.09Z"/><path class="cls-5" d="M466.42,507v24h-9.5a2.56,2.56,0,0,0-2.56,2.56V546h-9.77a22.58,22.58,0,1,0-45.16,0h-73.5a22.58,22.58,0,1,0-45.16,0H269.4V533.58a2.56,2.56,0,0,0-2.56-2.56h-8.73v-3a27.88,27.88,0,0,1,8.19-19.77m105.86,5.93h9.26a3.52,3.52,0,0,0,0-7h-9.26a3.52,3.52,0,0,0,0,7Z"/><path class="cls-6" d="M296.2,500.09h30.62a5,5,0,0,0,4.4-2.65l15.13-30.32a3.43,3.43,0,0,0-3-5h-8.84s-8.76,9.6-17,19.66C310,490.82,303.35,500.5,296.2,500.09Z"/><polygon class="cls-7" points="392.93 453.95 375.7 439 364.88 439 364.8 453.95 392.93 453.95"/><path class="cls-8" d="M466.42,531h-9.5a2.56,2.56,0,0,0-2.56,2.56v13.32a2.56,2.56,0,0,0,2.56,2.56h12.34a2.55,2.55,0,0,0,2.54-2.56V533.58a2.55,2.55,0,0,0-2.54-2.56Z"/><path class="cls-8" d="M252,533.58v13.32a2.56,2.56,0,0,0,2.56,2.56h12.33a2.56,2.56,0,0,0,2.56-2.56V533.58a2.56,2.56,0,0,0-2.56-2.56H254.52A2.56,2.56,0,0,0,252,533.58Z"/><path class="cls-8" d="M438.84,546A16.82,16.82,0,1,1,422,529.14,16.82,16.82,0,0,1,438.84,546ZM422,555.64a9.66,9.66,0,1,0-9.65-9.67A9.67,9.67,0,0,0,422,555.64Z"/><path class="cls-8" d="M320.17,546a16.82,16.82,0,1,1-16.82-16.82A16.83,16.83,0,0,1,320.17,546Zm-16.82,9.67a9.66,9.66,0,1,0-9.67-9.67A9.67,9.67,0,0,0,303.35,555.64Z"/><path class="cls-9" d="M372.17,507.16a3.52,3.52,0,0,0,0,7h9.26a3.52,3.52,0,0,0,0-7Z"/><path class="cls-10" d="M405.19,546A16.82,16.82,0,1,0,422,529.14,16.82,16.82,0,0,0,405.19,546Z"/><path class="cls-10" d="M269.4,546h11.37a22.58,22.58,0,1,1,45.16,0h73.5a22.58,22.58,0,1,1,45.16,0h9.77"/><path class="cls-10" d="M466.42,531V507a7.63,7.63,0,0,0-7.64-7.62,6.6,6.6,0,0,1-5.44-2.88l-24-35.21a16.25,16.25,0,0,0-13.44-7.09H348.62a16.25,16.25,0,0,0-12.57,5.95l-1.58,1.94-26.61,32.48a15.08,15.08,0,0,1-11.67,5.53H286.08a28,28,0,0,0-28,28v3"/><path class="cls-10" d="M412.36,546a9.66,9.66,0,1,0,9.65-9.65A9.67,9.67,0,0,0,412.36,546Z"/><path class="cls-10" d="M286.53,546a16.82,16.82,0,1,0,16.82-16.82A16.82,16.82,0,0,0,286.53,546Z"/><path class="cls-10" d="M293.68,546a9.66,9.66,0,1,0,9.67-9.65A9.67,9.67,0,0,0,293.68,546Z"/><path class="cls-11" d="M437.61,500.09H398.94a6,6,0,0,1-6-6V468.1a6,6,0,0,1,6-6h17.37a6,6,0,0,1,4.93,2.58l19.95,28.56A4.36,4.36,0,0,1,437.61,500.09Z"/><path class="cls-11" d="M386.11,467.06v28a5,5,0,0,1-5,5H348a5,5,0,0,1-4.44-7.26l14.28-28a5,5,0,0,1,4.44-2.73h18.86A5,5,0,0,1,386.11,467.06Z"/><path class="cls-10" d="M372.17,514.2h9.26a3.52,3.52,0,0,0,0-7h-9.26a3.52,3.52,0,0,0,0,7Z"/><path class="cls-10" d="M454.36,546v.94a2.56,2.56,0,0,0,2.56,2.56h12.34a2.55,2.55,0,0,0,2.54-2.56V533.58a2.55,2.55,0,0,0-2.54-2.56H456.92a2.56,2.56,0,0,0-2.56,2.56Z"/><path class="cls-10" d="M269.4,546V533.58a2.56,2.56,0,0,0-2.56-2.56H254.52a2.56,2.56,0,0,0-2.56,2.56v13.32a2.56,2.56,0,0,0,2.56,2.56h12.33a2.56,2.56,0,0,0,2.56-2.56Z"/><polyline class="cls-10" points="281.39 562.79 303.35 562.79 422.01 562.79 530.99 562.79"/><polyline class="cls-10" points="364.8 453.95 364.88 439 375.7 439 392.93 453.95"/><path class="cls-10" d="M296.2,500.09h30.62a5,5,0,0,0,4.4-2.65l15.13-30.32a3.43,3.43,0,0,0-3-5h-8.84"/><polygon class="cls-7" points="1408.73 451.95 1391.49 437 1380.68 437 1380.6 451.95 1408.73 451.95"/><path class="cls-4" d="M1301.87,498.09h40.74a5,5,0,0,0,4.4-2.65l15.13-30.32a3.43,3.43,0,0,0-3-5h-8.84l1.58-1.94a16.25,16.25,0,0,1,12.57-5.95h67.25a16.25,16.25,0,0,1,13.44,7.09l24,35.21a6.6,6.6,0,0,0,5.44,2.88,7.63,7.63,0,0,1,7.64,7.62v24h-9.5a2.56,2.56,0,0,0-2.56,2.56V544h-9.77a22.58,22.58,0,1,0-45.16,0h-73.5a22.58,22.58,0,1,0-45.16,0H1285.2V531.58a2.56,2.56,0,0,0-2.56-2.56h-8.73v-3A28,28,0,0,1,1301.87,498.09Zm95,0a5,5,0,0,0,5-5v-28a5,5,0,0,0-5-5h-18.86a5,5,0,0,0-4.44,2.73l-14.28,28a5,5,0,0,0,4.44,7.26Zm-9,14.11h9.26a3.52,3.52,0,0,0,0-7H1388a3.52,3.52,0,1,0,0,7Zm26.78-14.11h38.67a4.36,4.36,0,0,0,3.58-6.87L1437,462.65a6,6,0,0,0-4.93-2.58h-17.37a6,6,0,0,0-6,6V492A6,6,0,0,0,1414.74,498.09Z"/><path class="cls-5" d="M1482.22,505v24h-9.5a2.56,2.56,0,0,0-2.56,2.56V544h-9.77a22.58,22.58,0,1,0-45.16,0h-73.5a22.58,22.58,0,1,0-45.16,0H1285.2V531.58a2.56,2.56,0,0,0-2.56-2.56h-8.73v-3a27.88,27.88,0,0,1,8.19-19.77M1388,512.2h9.26a3.52,3.52,0,0,0,0-7H1388a3.52,3.52,0,1,0,0,7Z"/><path class="cls-8" d="M1482.22,529h-9.5a2.56,2.56,0,0,0-2.56,2.56v13.32a2.56,2.56,0,0,0,2.56,2.56h12.34a2.55,2.55,0,0,0,2.54-2.56V531.58a2.55,2.55,0,0,0-2.54-2.56Z"/><path class="cls-8" d="M1267.76,531.58v13.32a2.56,2.56,0,0,0,2.56,2.56h12.33a2.56,2.56,0,0,0,2.56-2.56V531.58a2.56,2.56,0,0,0-2.56-2.56h-12.33A2.56,2.56,0,0,0,1267.76,531.58Z"/><path class="cls-8" d="M1454.63,544a16.82,16.82,0,1,1-16.82-16.82A16.82,16.82,0,0,1,1454.63,544Zm-16.82,9.67a9.66,9.66,0,1,0-9.65-9.67A9.67,9.67,0,0,0,1437.81,553.64Z"/><path class="cls-8" d="M1336,544a16.82,16.82,0,1,1-16.82-16.82A16.83,16.83,0,0,1,1336,544Zm-16.82,9.67a9.66,9.66,0,1,0-9.67-9.67A9.67,9.67,0,0,0,1319.15,553.64Z"/><path class="cls-9" d="M1388,505.16a3.52,3.52,0,1,0,0,7h9.26a3.52,3.52,0,0,0,0-7Z"/><path class="cls-10" d="M1421,544a16.82,16.82,0,1,0,16.82-16.82A16.82,16.82,0,0,0,1421,544Z"/><path class="cls-10" d="M1285.2,544h11.37a22.58,22.58,0,1,1,45.16,0h73.5a22.58,22.58,0,1,1,45.16,0h9.77"/><path class="cls-10" d="M1482.22,529V505a7.63,7.63,0,0,0-7.64-7.62,6.6,6.6,0,0,1-5.44-2.88l-24-35.21a16.25,16.25,0,0,0-13.44-7.09h-67.25a16.25,16.25,0,0,0-12.57,5.95l-1.58,1.94-26.61,32.48a15.08,15.08,0,0,1-11.67,5.53h-10.12a28,28,0,0,0-28,28v3"/><path class="cls-10" d="M1428.16,544a9.66,9.66,0,1,0,9.65-9.65A9.67,9.67,0,0,0,1428.16,544Z"/><path class="cls-10" d="M1302.32,544a16.82,16.82,0,1,0,16.82-16.82A16.82,16.82,0,0,0,1302.32,544Z"/><path class="cls-10" d="M1309.48,544a9.66,9.66,0,1,0,9.67-9.65A9.67,9.67,0,0,0,1309.48,544Z"/><path class="cls-12" d="M1453.41,498.09h-38.67a6,6,0,0,1-6-6V466.1a6,6,0,0,1,6-6h17.37a6,6,0,0,1,4.93,2.58L1457,491.22A4.36,4.36,0,0,1,1453.41,498.09Z"/><path class="cls-12" d="M1401.91,465.06v28a5,5,0,0,1-5,5h-33.14a5,5,0,0,1-4.44-7.26l14.28-28a5,5,0,0,1,4.44-2.73h18.86A5,5,0,0,1,1401.91,465.06Z"/><path class="cls-12" d="M1352.27,460.08h6.84a3.43,3.43,0,0,1,3,5L1347,495.43a5,5,0,0,1-4.4,2.65H1321"/><path class="cls-10" d="M1388,512.2h9.26a3.52,3.52,0,0,0,0-7H1388a3.52,3.52,0,1,0,0,7Z"/><path class="cls-10" d="M1470.16,544v.94a2.56,2.56,0,0,0,2.56,2.56h12.34a2.55,2.55,0,0,0,2.54-2.56V531.58a2.55,2.55,0,0,0-2.54-2.56h-12.34a2.56,2.56,0,0,0-2.56,2.56Z"/><path class="cls-10" d="M1285.2,544V531.58a2.56,2.56,0,0,0-2.56-2.56h-12.33a2.56,2.56,0,0,0-2.56,2.56v13.32a2.56,2.56,0,0,0,2.56,2.56h12.33a2.56,2.56,0,0,0,2.56-2.56Z"/><polyline class="cls-10" points="1297.19 560.79 1319.15 560.79 1437.81 560.79 1546.78 560.79"/><polyline class="cls-10" points="1380.6 451.95 1380.68 437 1391.49 437 1408.73 451.95"/><path class="cls-5" d="M741.6,585.23a22.57,22.57,0,0,0,21.3-15.09l2.79-7.95A22.58,22.58,0,0,1,787,547.1H872.9a22.58,22.58,0,0,1,21.3,15.09l3.56,10.12a22.58,22.58,0,0,0,18.09,14.86l43.94,6.31a22.58,22.58,0,0,1,19.37,22.35v7.53H706.85V607.81a22.58,22.58,0,0,1,22.58-22.58Z"/><polygon class="cls-13" points="959.48 594.03 960.23 594.15 960.23 593.28 961.42 594.33 965.24 594.92 969.46 597.62 973.02 601.56 976.22 604.21 978.08 608.77 975.62 606.82 979.04 609.84 960.23 609.84 960.23 594.63 959.48 594.03"/><path class="cls-4" d="M915.85,587.18a22.58,22.58,0,0,1-18.09-14.86L894.2,562.2a22.58,22.58,0,0,0-21.3-15.09H787a22.58,22.58,0,0,0-21.3,15.09l-2.79,7.95a22.5,22.5,0,0,1-8.25,10.94c-4,2.81-28.47,5.43-33,5.43L711.13,594H959.48Z"/><path class="cls-14" d="M702,634.15a7.53,7.53,0,0,0,7.53,7.53H976.1a6.61,6.61,0,0,0,4.88-2.2,7.85,7.85,0,0,0,2-5.32V623.36H702Z"/><path class="cls-15" d="M741.6,585.23a22.57,22.57,0,0,0,21.3-15.09l2.79-7.95A22.58,22.58,0,0,1,787,547.1H872.9a22.58,22.58,0,0,1,21.3,15.09l3.56,10.12a22.58,22.58,0,0,0,18.09,14.86l43.94,6.31a22.58,22.58,0,0,1,19.37,22.35v7.53H706.85V607.81a22.58,22.58,0,0,1,22.58-22.58Z"/><path class="cls-16" d="M834.67,587h55.94l-6.89-17.36a22.58,22.58,0,0,0-21-14.25H834.67Z"/><path class="cls-16" d="M824.19,587H768.26l6.89-17.36a22.58,22.58,0,0,1,21-14.25h28.07Z"/><circle class="cls-17" cx="926.68" cy="632.52" r="21.27"/><circle class="cls-18" cx="926.68" cy="632.52" r="9.95"/><circle class="cls-17" cx="752.84" cy="632.52" r="21.27"/><circle class="cls-18" cx="752.84" cy="632.52" r="9.95"/><polygon class="cls-19" points="820.62 534.81 829.09 534.81 837.56 547.1 820.62 547.1 820.62 534.81"/><line class="cls-17" x1="983.01" y1="632.52" x2="965.62" y2="632.52"/><line class="cls-17" x1="701.97" y1="630.76" x2="717.65" y2="630.76"/><line class="cls-17" x1="785.77" y1="632.52" x2="837.56" y2="632.52"/><line class="cls-17" x1="857.19" y1="632.52" x2="883.09" y2="632.52"/><line class="cls-15" x1="908.12" y1="594.03" x2="711.89" y2="594.03"/><polyline class="cls-15" points="977.54 610.59 959.48 610.59 959.48 594.03"/><polyline class="cls-10" points="952.78 653.79 920.95 653.79 748.94 653.79 590.97 653.79"/></svg>