<svg id="Camada_1" data-name="Camada 1" xmlns="http://www.w3.org/2000/svg" viewBox="0 0 1067 481"><defs><style>.cls-1{opacity:0.25;}.cls-2,.cls-4,.cls-8{opacity:0.55;}.cls-3,.cls-4,.cls-7{fill:none;}.cls-3,.cls-4,.cls-6,.cls-8,.cls-9{stroke:#333;}.cls-3,.cls-4,.cls-6,.cls-7,.cls-8,.cls-9{stroke-miterlimit:10;}.cls-5{fill:#f9f9f9;}.cls-6,.cls-8{fill:#fff;}.cls-7{stroke:#282827;}.cls-9{fill:#fcfcfc;}</style></defs><title>amt-bg-16</title><g class="cls-1"><g class="cls-2"><rect class="cls-3" x="502.77" y="304.91" width="9.43" height="9.43"/><rect class="cls-3" x="502.77" y="323.78" width="9.43" height="9.43"/><rect class="cls-3" x="502.77" y="342.65" width="9.43" height="9.43"/><rect class="cls-3" x="502.77" y="361.52" width="9.43" height="9.43"/><rect class="cls-3" x="502.77" y="380.38" width="9.43" height="9.43"/><rect class="cls-3" x="502.77" y="399.25" width="9.43" height="9.43"/><rect class="cls-3" x="502.77" y="229.44" width="9.43" height="9.43"/><rect class="cls-3" x="502.77" y="248.31" width="9.43" height="9.43"/><rect class="cls-3" x="502.77" y="267.18" width="9.43" height="9.43"/><rect class="cls-3" x="502.77" y="286.04" width="9.43" height="9.43"/><rect class="cls-3" x="502.77" y="416.83" width="9.43" height="9.43"/><rect class="cls-3" x="502.77" y="435.7" width="9.43" height="9.43"/><rect class="cls-3" x="478.32" y="304.91" width="9.43" height="9.43"/><rect class="cls-3" x="478.32" y="323.78" width="9.43" height="9.43"/><rect class="cls-3" x="478.32" y="342.65" width="9.43" height="9.43"/><rect class="cls-3" x="478.32" y="361.52" width="9.43" height="9.43"/><rect class="cls-3" x="478.32" y="380.38" width="9.43" height="9.43"/><rect class="cls-3" x="478.32" y="399.25" width="9.43" height="9.43"/><rect class="cls-3" x="478.32" y="229.44" width="9.43" height="9.43"/><rect class="cls-3" x="478.32" y="248.31" width="9.43" height="9.43"/><rect class="cls-3" x="478.32" y="267.18" width="9.43" height="9.43"/><rect class="cls-3" x="478.32" y="286.04" width="9.43" height="9.43"/><rect class="cls-3" x="478.32" y="416.83" width="9.43" height="9.43"/><rect class="cls-3" x="478.32" y="435.7" width="9.43" height="9.43"/><rect class="cls-3" x="466.21" y="214.76" width="58.1" height="265.6"/></g><polygon class="cls-4" points="723.07 269.55 723.07 251.28 708.13 251.28 708.13 234.69 678.25 234.69 678.25 251.28 663.31 251.28 663.31 269.55 655.01 269.55 655.01 480.36 731.37 480.36 731.37 269.55 723.07 269.55"/><g class="cls-2"><rect class="cls-3" x="524.98" y="384.08" width="129.48" height="96.28"/><rect class="cls-3" x="546" y="231.36" width="86.32" height="152.72"/><rect class="cls-3" x="524.98" y="384.08" width="129.48" height="96.28"/><line class="cls-3" x1="524.66" y1="401.92" x2="653.65" y2="401.92"/><line class="cls-3" x1="524.66" y1="421.84" x2="653.65" y2="421.84"/><line class="cls-3" x1="524.66" y1="441.76" x2="653.65" y2="441.76"/><line class="cls-3" x1="524.66" y1="461.68" x2="653.65" y2="461.68"/><line class="cls-3" x1="555.41" y1="241.32" x2="555.41" y2="382.7"/><line class="cls-3" x1="564.9" y1="241.32" x2="564.9" y2="382.7"/><line class="cls-3" x1="574.38" y1="241.32" x2="574.38" y2="382.7"/><line class="cls-3" x1="583.87" y1="241.32" x2="583.87" y2="382.7"/><line class="cls-3" x1="593.35" y1="241.32" x2="593.35" y2="382.7"/><line class="cls-3" x1="602.84" y1="241.32" x2="602.84" y2="382.7"/><line class="cls-3" x1="612.33" y1="241.32" x2="612.33" y2="382.7"/><line class="cls-3" x1="621.81" y1="241.32" x2="621.81" y2="382.7"/></g><rect class="cls-4" x="666.63" y="279.5" width="51.46" height="11.62"/><rect class="cls-4" x="666.63" y="301.8" width="51.46" height="11.62"/><rect class="cls-4" x="666.63" y="346.38" width="51.46" height="11.62"/><rect class="cls-4" x="666.63" y="368.67" width="51.46" height="11.62"/><rect class="cls-4" x="666.63" y="413.25" width="51.46" height="11.62"/><rect class="cls-4" x="666.63" y="435.54" width="51.46" height="11.62"/></g><g class="cls-1"><g class="cls-2"><g class="cls-2"><rect class="cls-3" x="174.63" y="303.67" width="9.43" height="9.43"/><rect class="cls-3" x="174.63" y="322.53" width="9.43" height="9.43"/><rect class="cls-3" x="174.63" y="341.4" width="9.43" height="9.43"/><rect class="cls-3" x="174.63" y="360.27" width="9.43" height="9.43"/><rect class="cls-3" x="174.63" y="379.14" width="9.43" height="9.43"/><rect class="cls-3" x="174.63" y="398.01" width="9.43" height="9.43"/><rect class="cls-3" x="174.63" y="228.2" width="9.43" height="9.43"/><rect class="cls-3" x="174.63" y="247.06" width="9.43" height="9.43"/><rect class="cls-3" x="174.63" y="265.93" width="9.43" height="9.43"/><rect class="cls-3" x="174.63" y="284.8" width="9.43" height="9.43"/><rect class="cls-3" x="174.63" y="415.59" width="9.43" height="9.43"/><rect class="cls-3" x="174.63" y="434.45" width="9.43" height="9.43"/><rect class="cls-3" x="150.19" y="303.67" width="9.43" height="9.43"/><rect class="cls-3" x="150.19" y="322.53" width="9.43" height="9.43"/><rect class="cls-3" x="150.19" y="341.4" width="9.43" height="9.43"/><rect class="cls-3" x="150.19" y="360.27" width="9.43" height="9.43"/><rect class="cls-3" x="150.19" y="379.14" width="9.43" height="9.43"/><rect class="cls-3" x="150.19" y="398.01" width="9.43" height="9.43"/><rect class="cls-3" x="150.19" y="228.2" width="9.43" height="9.43"/><rect class="cls-3" x="150.19" y="247.06" width="9.43" height="9.43"/><rect class="cls-3" x="150.19" y="265.93" width="9.43" height="9.43"/><rect class="cls-3" x="150.19" y="284.8" width="9.43" height="9.43"/><rect class="cls-3" x="150.19" y="415.59" width="9.43" height="9.43"/><rect class="cls-3" x="150.19" y="434.45" width="9.43" height="9.43"/><rect class="cls-3" x="138.07" y="213.52" width="58.1" height="265.6"/></g><polygon class="cls-4" points="394.93 268.3 394.93 250.04 379.99 250.04 379.99 233.44 350.11 233.44 350.11 250.04 335.17 250.04 335.17 268.3 326.87 268.3 326.87 479.12 403.23 479.12 403.23 268.3 394.93 268.3"/><g class="cls-2"><rect class="cls-3" x="196.84" y="382.84" width="129.48" height="96.28"/><rect class="cls-3" x="217.87" y="230.12" width="86.32" height="152.72"/><rect class="cls-3" x="236.13" y="177" width="49.8" height="53.12"/><rect class="cls-3" x="196.84" y="382.84" width="129.48" height="96.28"/><line class="cls-3" x1="196.53" y1="400.68" x2="325.51" y2="400.68"/><line class="cls-3" x1="196.53" y1="420.6" x2="325.51" y2="420.6"/><line class="cls-3" x1="196.53" y1="440.52" x2="325.51" y2="440.52"/><line class="cls-3" x1="196.53" y1="460.44" x2="325.51" y2="460.44"/><line class="cls-3" x1="227.27" y1="240.08" x2="227.27" y2="381.46"/><line class="cls-3" x1="236.76" y1="240.08" x2="236.76" y2="381.46"/><line class="cls-3" x1="246.24" y1="240.08" x2="246.24" y2="381.46"/><line class="cls-3" x1="255.73" y1="240.08" x2="255.73" y2="381.46"/><line class="cls-3" x1="265.21" y1="240.08" x2="265.21" y2="381.46"/><line class="cls-3" x1="274.7" y1="240.08" x2="274.7" y2="381.46"/><line class="cls-3" x1="246.24" y1="190.28" x2="246.24" y2="230.95"/><line class="cls-3" x1="255.73" y1="190.28" x2="255.73" y2="230.95"/><line class="cls-3" x1="265.21" y1="190.28" x2="265.21" y2="230.95"/><line class="cls-3" x1="274.7" y1="190.28" x2="274.7" y2="230.95"/><line class="cls-3" x1="284.19" y1="240.08" x2="284.19" y2="381.46"/><line class="cls-3" x1="293.67" y1="240.08" x2="293.67" y2="381.46"/></g><rect class="cls-4" x="338.49" y="278.26" width="51.46" height="11.62"/><rect class="cls-4" x="338.49" y="300.55" width="51.46" height="11.62"/><rect class="cls-4" x="338.49" y="345.13" width="51.46" height="11.62"/><rect class="cls-4" x="338.49" y="367.43" width="51.46" height="11.62"/><rect class="cls-4" x="338.49" y="412.01" width="51.46" height="11.62"/><rect class="cls-4" x="338.49" y="434.3" width="51.46" height="11.62"/></g><g class="cls-2"><rect class="cls-3" x="70.21" y="212.9" width="10.07" height="20.14"/><rect class="cls-3" x="90.36" y="212.9" width="10.07" height="20.14"/><rect class="cls-3" x="110.5" y="212.9" width="10.07" height="20.14"/><rect class="cls-3" x="70.21" y="243.12" width="10.07" height="20.14"/><rect class="cls-3" x="90.36" y="243.12" width="10.07" height="20.14"/><rect class="cls-3" x="110.5" y="243.12" width="10.07" height="20.14"/><rect class="cls-3" x="70.21" y="273.33" width="10.07" height="20.14"/><rect class="cls-3" x="90.36" y="273.33" width="10.07" height="20.14"/><rect class="cls-3" x="110.5" y="273.33" width="10.07" height="20.14"/><rect class="cls-3" x="70.21" y="303.54" width="10.07" height="20.14"/><rect class="cls-3" x="90.36" y="303.54" width="10.07" height="20.14"/><rect class="cls-3" x="110.5" y="303.54" width="10.07" height="20.14"/><rect class="cls-3" x="70.21" y="333.76" width="10.07" height="20.14"/><rect class="cls-3" x="90.36" y="333.76" width="10.07" height="20.14"/><rect class="cls-3" x="110.5" y="333.76" width="10.07" height="20.14"/><rect class="cls-3" x="70.21" y="363.97" width="10.07" height="20.14"/><rect class="cls-3" x="90.36" y="363.97" width="10.07" height="20.14"/><rect class="cls-3" x="110.5" y="363.97" width="10.07" height="20.14"/><rect class="cls-3" x="51.34" y="190.47" width="86.74" height="288.65"/><path class="cls-3" d="M114.86,477.79V447.57a20.14,20.14,0,0,0-40.28,0v30.21"/></g></g><polygon class="cls-5" points="32.5 480.02 279.29 478.13 279.29 279.5 265.5 279.5 265.5 221.5 189.06 221.5 189 300 126 300 125 228 51 229 32.5 480.02"/><path class="cls-4" d="M921.13,199.27a44.19,44.19,0,1,0-44.21-44.15A44.24,44.24,0,0,0,921.13,199.27Z"/><g class="cls-2"><line class="cls-3" x1="316.39" y1="157.27" x2="334.88" y2="157.25"/><line class="cls-3" x1="344.12" y1="157.25" x2="353.36" y2="157.24"/><line class="cls-3" x1="330.26" y1="169.2" x2="367.23" y2="169.18"/><line class="cls-3" x1="372.01" y1="169.17" x2="376.78" y2="169.17"/><line class="cls-3" x1="388.93" y1="165.75" x2="395" y2="171.81"/><line class="cls-3" x1="395" y1="165.75" x2="388.94" y2="171.82"/></g><g class="cls-2"><line class="cls-3" x1="926.39" y1="57.27" x2="944.88" y2="57.25"/><line class="cls-3" x1="954.12" y1="57.25" x2="963.36" y2="57.24"/><line class="cls-3" x1="940.26" y1="69.2" x2="977.23" y2="69.18"/><line class="cls-3" x1="982.01" y1="69.17" x2="986.78" y2="69.17"/><line class="cls-3" x1="998.93" y1="65.75" x2="1005" y2="71.81"/><line class="cls-3" x1="1005" y1="65.75" x2="998.94" y2="71.82"/></g><g class="cls-2"><line class="cls-3" x1="142.77" y1="121.85" x2="161.25" y2="121.84"/><line class="cls-3" x1="170.5" y1="121.83" x2="179.74" y2="121.83"/><line class="cls-3" x1="156.64" y1="133.78" x2="193.61" y2="133.76"/><line class="cls-3" x1="198.38" y1="133.76" x2="203.16" y2="133.75"/><line class="cls-3" x1="215.31" y1="130.33" x2="221.38" y2="136.4"/><line class="cls-3" x1="221.38" y1="130.33" x2="215.32" y2="136.4"/></g><line class="cls-4" x1="962.33" y1="480.6" x2="1025.5" y2="480.59"/><line class="cls-4" x1="34" y1="480.64" x2="944" y2="480.62"/><g class="cls-2"><line class="cls-3" x1="875.82" y1="88.42" x2="881.89" y2="94.48"/><line class="cls-3" x1="881.89" y1="88.42" x2="875.82" y2="94.49"/></g><g class="cls-2"><polyline class="cls-3" points="47.96 481.08 47.87 334.55 66.57 334.54"/><polyline class="cls-3" points="67.09 480.63 66.94 229.32 50.85 229.33 50.92 334.55"/><polyline class="cls-3" points="109.27 481.05 109.12 228.43 126.07 228.41 126.22 480.6 121.87 480.6 120.86 228.42"/><line class="cls-3" x1="66.71" y1="236" x2="108.83" y2="235.98"/><path class="cls-3" d="M54.48,229.66v-7.8c0-.87,2.46-2.46,2.46-2.46s2.53,1.64,2.53,2.53v7.73"/><path class="cls-3" d="M61.94,229.66v-7.8c0-.87,2.46-2.46,2.46-2.46s2.53,1.64,2.53,2.53v8.67"/><path class="cls-3" d="M109.63,228.73v-6.9c0-.87,2.46-2.46,2.46-2.46s2.53,1.64,2.53,2.53v6.83"/><path class="cls-3" d="M117.09,228.73v-6.9c0-.87,2.46-2.46,2.46-2.46s2.53,1.64,2.53,2.53v6.83"/><path class="cls-3" d="M129,306.24v-6.29c0-.87,2.46-2.46,2.46-2.46S134,299.12,134,300v6.21"/><path class="cls-3" d="M136.51,306.23v-6.29c0-.87,2.46-2.46,2.46-2.46s2.53,1.64,2.53,2.53v6.21"/><path class="cls-3" d="M144,306.23v-6.29c0-.87,2.46-2.46,2.46-2.46S149,299.11,149,300v6.21"/><path class="cls-3" d="M151.55,306.22v-6.29c0-.87,2.46-2.46,2.46-2.46s2.53,1.64,2.53,2.53v6.21"/><path class="cls-3" d="M159.06,306.22v-6.29c0-.87,2.46-2.46,2.46-2.46S164,299.11,164,300v6.21"/><path class="cls-3" d="M166.58,306.21v-6.29c0-.87,2.46-2.46,2.46-2.46s2.53,1.64,2.53,2.53v6.21"/><path class="cls-3" d="M174.09,306.21v-6.29c0-.87,2.46-2.46,2.46-2.46s2.53,1.64,2.53,2.53v6.21"/><path class="cls-3" d="M181.61,306.2v-6.29c0-.87,2.46-2.46,2.46-2.46s2.53,1.64,2.53,2.53v6.21"/><path class="cls-3" d="M86.78,388.55V370.33a3.94,3.94,0,0,0-7.89,0v18.22Z"/><path class="cls-3" d="M97,388.54V370.32a3.94,3.94,0,1,0-7.89,0v18.22Z"/><path class="cls-3" d="M78,295.51l0-26.36A9.7,9.7,0,0,1,97.3,270l0,25.77"/><path class="cls-3" d="M75.37,295.64l0-27a11.83,11.83,0,0,1,11.82-11.83c6.53,0,12.71,5,12.71,11.54l0,27.2"/><path class="cls-3" d="M71.35,269.4a16.28,16.28,0,1,1,32.55,0l0,26.48-32.11,0Z"/><polyline class="cls-3" points="267.68 480.95 267.59 334.42 248.9 334.44"/><polyline class="cls-3" points="248.55 480.53 248.4 229.21 264.49 229.2 264.55 334.43"/><polyline class="cls-3" points="206.37 480.99 206.22 228.37 189.27 228.38 189.41 480.56 193.76 480.56 194.48 228.38"/><line class="cls-3" x1="248.64" y1="235.9" x2="206.52" y2="235.92"/><path class="cls-3" d="M260.86,229.54v-7.8c0-.87-2.46-2.46-2.46-2.46s-2.53,1.64-2.53,2.53v7.73"/><path class="cls-3" d="M253.4,229.55v-7.8c0-.87-2.46-2.46-2.46-2.46s-2.53,1.64-2.53,2.53v8.67"/><path class="cls-3" d="M205.71,228.67v-6.9c0-.87-2.46-2.46-2.46-2.46s-2.53,1.64-2.53,2.53v6.83"/><path class="cls-3" d="M198.26,228.68v-6.9c0-.87-2.46-2.46-2.46-2.46s-2.53,1.64-2.53,2.53v6.83"/><path class="cls-3" d="M242.07,236.21v-6.29c0-.87-2.46-2.46-2.46-2.46s-2.53,1.64-2.53,2.53v6.21"/><path class="cls-3" d="M233.91,236.21v-6.29c0-.87-2.46-2.46-2.46-2.46s-2.53,1.64-2.53,2.53v6.21"/><path class="cls-3" d="M225.74,236.22v-6.29c0-.87-2.46-2.46-2.46-2.46s-2.53,1.64-2.53,2.53v6.21"/><path class="cls-3" d="M217.57,236.22v-6.29c0-.87-2.46-2.46-2.46-2.46s-2.53,1.64-2.53,2.53v6.21"/><path class="cls-3" d="M103.24,236.29V230c0-.87-2.46-2.46-2.46-2.46s-2.53,1.64-2.53,2.53v6.21"/><path class="cls-3" d="M95.07,236.3V230c0-.87-2.46-2.46-2.46-2.46s-2.53,1.64-2.53,2.53v6.21"/><path class="cls-3" d="M86.91,236.3V230c0-.87-2.46-2.46-2.46-2.46s-2.53,1.64-2.53,2.53v6.21"/><path class="cls-3" d="M78.74,236.31V230c0-.87-2.46-2.46-2.46-2.46s-2.53,1.64-2.53,2.53v6.21"/><path class="cls-3" d="M228.75,388.46V370.25a3.94,3.94,0,1,1,7.89,0v18.22Z"/><path class="cls-3" d="M218.5,388.47V370.25a3.94,3.94,0,0,1,7.89,0v18.22Z"/><path class="cls-3" d="M237.46,295.42l0-26.36a9.7,9.7,0,0,0-19.36.84l0,25.77"/><path class="cls-3" d="M240,295.54l0-27a11.83,11.83,0,0,0-11.83-11.82c-6.53,0-12.7,5-12.7,11.55l0,27.2"/><path class="cls-3" d="M244,269.3a16.28,16.28,0,0,0-32.55,0l0,26.48,32.11,0Z"/><circle class="cls-3" cx="226.27" cy="315" r="5.43"/><circle class="cls-3" cx="226.27" cy="315" r="13.47"/><path class="cls-3" d="M126.34,432.26c0-19.5,14-35.31,31.21-35.32s31.24,15.79,31.25,35.28"/><path class="cls-3" d="M126.34,438.17c0-19.5,14-35.31,31.21-35.32s31.6,15.3,31.62,34.8"/><line class="cls-3" x1="125.7" y1="306.53" x2="188.81" y2="306.49"/><path class="cls-3" d="M181.06,382.4l0-33.72a23.52,23.52,0,0,0-47,0l0,34.1"/><path class="cls-3" d="M130,383.39l0-39.54a27.58,27.58,0,0,1,55.16,0l0,39.54Z"/><circle class="cls-3" cx="157.44" cy="357.4" r="19.3"/><path class="cls-3" d="M156.75,358.26S150.92,343,156.9,343,156.75,358.26,156.75,358.26Z"/><path class="cls-3" d="M166.22,346.21c4.89,3.43-8.91,12.41-8.91,12.41s4-15.84,8.91-12.41"/><path class="cls-3" d="M157.17,357.92s13.81-8.74,15-2.89S157.17,357.92,157.17,357.92Z"/><path class="cls-3" d="M170.87,364.81c-2.4,5.47-13.85-7.39-13.85-7.39s16.25,1.91,13.85,7.39"/><path class="cls-3" d="M158,357.78s10.87,12.21,5.28,14.33S158,357.78,158,357.78Z"/><path class="cls-3" d="M153.43,372.41c-5.79-1.48,3.92-14.76,3.92-14.76s1.87,16.24-3.92,14.76"/><path class="cls-3" d="M157.59,358s-9.92,13-13.07,7.91S157.59,358,157.59,358Z"/><path class="cls-3" d="M142.36,356.27c.35-6,15.24,1,15.24,1s-15.59,4.92-15.24-1"/><path class="cls-3" d="M156.75,357.61s-14.88-6.76-10.64-11S156.75,357.61,156.75,357.61Z"/><polyline class="cls-3" points="126.08 386.55 129.67 386.55 129.67 394.99 126.26 394.99"/><polyline class="cls-3" points="189.16 394.95 184.63 394.95 184.62 390.41 184.62 386.51 188.98 386.51"/><line class="cls-3" x1="130.01" y1="389.56" x2="184.62" y2="389.53"/><rect class="cls-6" x="131.69" y="386.54" width="6.45" height="8.44"/><rect class="cls-6" x="140.4" y="386.54" width="6.45" height="8.44"/><rect class="cls-6" x="149.11" y="386.53" width="6.45" height="8.44"/><rect class="cls-6" x="157.82" y="386.53" width="6.45" height="8.44"/><rect class="cls-6" x="166.52" y="386.52" width="6.45" height="8.44"/><rect class="cls-6" x="175.23" y="386.52" width="6.45" height="8.44"/><line class="cls-3" x1="67.73" y1="421.98" x2="94.6" y2="421.97"/><line class="cls-3" x1="67.73" y1="406.39" x2="96.74" y2="406.38"/><line class="cls-3" x1="67.73" y1="412.39" x2="82.74" y2="412.38"/><line class="cls-3" x1="50.45" y1="313.39" x2="60.74" y2="313.38"/><line class="cls-3" x1="50.45" y1="287.39" x2="57.74" y2="287.38"/><line class="cls-3" x1="254.45" y1="313.39" x2="264.74" y2="313.38"/><line class="cls-3" x1="257.45" y1="287.39" x2="264.74" y2="287.38"/><line class="cls-3" x1="233.73" y1="425.98" x2="248.6" y2="425.97"/><line class="cls-3" x1="238.45" y1="410.39" x2="248.74" y2="410.38"/><line class="cls-3" x1="216.45" y1="416.39" x2="247.74" y2="416.38"/></g><path class="cls-4" d="M872.88,289.19H828.44c-.87,0-1.53-.58-1.53-1.09s.65-1.09,1.53-1.09h9.06s-.05.09,1.21-.1a8.38,8.38,0,0,0,7.19-8.3v-.86a8.41,8.41,0,0,0-8.4-8.4h-38a8.41,8.41,0,0,0-8.4,8.4v.86a8.41,8.41,0,0,0,8.4,8.4h16c.87,0,1.53.58,1.53,1.09s-.65,1.09-1.53,1.09H783.14a10.57,10.57,0,0,0-10.55,10.55V301a10.57,10.57,0,0,0,10.55,10.55h89.73A10.57,10.57,0,0,0,883.43,301v-1.29A10.57,10.57,0,0,0,872.88,289.19Z"/><path class="cls-4" d="M726.17,107.26a2.39,2.39,0,0,1-2.38-2.38V104a2.39,2.39,0,0,1,2.38-2.38h22.08a13.06,13.06,0,0,0,13-13V84.64a13.06,13.06,0,0,0-13-13H610.92a13.06,13.06,0,0,0-13,13v3.89a13.06,13.06,0,0,0,13,13h87.65a2.59,2.59,0,0,1,2.61,2.38v.92a2.39,2.39,0,0,1-2.38,2.38h-18a12.22,12.22,0,0,0-12.2,12.2v1.27a12.22,12.22,0,0,0,12.2,12.2h87.36a12.22,12.22,0,0,0,12.2-12.2v-1.27a12.22,12.22,0,0,0-12.2-12.2Z"/><rect class="cls-5" x="316" y="269" width="146" height="211"/><g class="cls-2"><g class="cls-2"><line class="cls-3" x1="341.73" y1="311.98" x2="354.6" y2="311.97"/><line class="cls-3" x1="352.45" y1="297.39" x2="362.74" y2="297.38"/><line class="cls-3" x1="327.57" y1="297.4" x2="346.44" y2="297.39"/></g><g class="cls-2"><line class="cls-3" x1="415.73" y1="473.98" x2="428.6" y2="473.97"/><line class="cls-3" x1="426.45" y1="459.39" x2="436.74" y2="459.38"/><line class="cls-3" x1="401.57" y1="459.4" x2="420.44" y2="459.39"/></g><line class="cls-3" x1="424.45" y1="298.39" x2="434.74" y2="298.38"/><rect class="cls-7" x="319.46" y="279.58" width="134.33" height="10.62"/><rect class="cls-7" x="319.46" y="307.51" width="134.33" height="10.62"/><rect class="cls-7" x="326.61" y="290.43" width="120.02" height="17.08"/><polyline class="cls-7" points="326.61 481.08 326.61 318.13 446.64 318.13 446.64 481.08"/><line class="cls-7" x1="446.7" y1="371.03" x2="326.85" y2="371.03"/><line class="cls-7" x1="446.24" y1="421.81" x2="326.85" y2="421.81"/><line class="cls-7" x1="337.2" y1="465.2" x2="326.85" y2="465.2"/><line class="cls-7" x1="446.7" y1="465.2" x2="361.61" y2="465.2"/><polygon class="cls-7" points="437.19 361.98 413.18 361.98 413.18 343.33 413.18 325.51 437.19 325.51 437.19 361.98"/><line class="cls-7" x1="437.19" y1="343.58" x2="413.18" y2="343.58"/><line class="cls-7" x1="425.18" y1="326.03" x2="425.18" y2="361.98"/><line class="cls-7" x1="407.34" y1="361.98" x2="441.5" y2="361.98"/><polygon class="cls-7" points="400.26 361.98 376.25 361.98 376.25 343.33 376.25 325.51 400.26 325.51 400.26 361.98"/><line class="cls-7" x1="400.26" y1="343.58" x2="376.25" y2="343.58"/><line class="cls-7" x1="388.25" y1="326.03" x2="388.25" y2="361.98"/><line class="cls-7" x1="370.41" y1="361.98" x2="404.57" y2="361.98"/><polygon class="cls-7" points="363.33 361.98 339.32 361.98 339.32 343.33 339.32 325.51 363.33 325.51 363.33 361.98"/><line class="cls-7" x1="363.33" y1="343.58" x2="339.32" y2="343.58"/><line class="cls-7" x1="351.32" y1="326.03" x2="351.32" y2="361.98"/><line class="cls-7" x1="333.48" y1="361.98" x2="367.64" y2="361.98"/><polygon class="cls-7" points="437.19 414.14 413.18 414.14 413.18 395.49 413.18 377.68 437.19 377.68 437.19 414.14"/><line class="cls-7" x1="437.19" y1="395.75" x2="413.18" y2="395.75"/><line class="cls-7" x1="425.18" y1="378.2" x2="425.18" y2="414.14"/><line class="cls-7" x1="407.34" y1="414.14" x2="441.5" y2="414.14"/><polygon class="cls-7" points="437.19 452.92 413.18 452.92 413.18 441.94 413.18 431.46 437.19 431.46 437.19 452.92"/><line class="cls-7" x1="407.34" y1="452.92" x2="441.5" y2="452.92"/><polygon class="cls-7" points="399.8 452.92 375.79 452.92 375.79 441.94 375.79 431.46 399.8 431.46 399.8 452.92"/><line class="cls-7" x1="369.95" y1="452.92" x2="404.11" y2="452.92"/><polyline class="cls-7" points="337.48 481.08 337.48 470.1 337.48 431.69 361.48 431.69 361.48 481.08"/><polygon class="cls-7" points="400.26 414.14 376.25 414.14 376.25 395.49 376.25 377.68 400.26 377.68 400.26 414.14"/><line class="cls-7" x1="400.26" y1="395.75" x2="376.25" y2="395.75"/><line class="cls-7" x1="388.25" y1="378.2" x2="388.25" y2="414.14"/><line class="cls-7" x1="370.41" y1="414.14" x2="404.57" y2="414.14"/><polygon class="cls-7" points="363.33 414.14 339.32 414.14 339.32 395.49 339.32 377.68 363.33 377.68 363.33 414.14"/><line class="cls-7" x1="363.33" y1="395.75" x2="339.32" y2="395.75"/><line class="cls-7" x1="351.32" y1="378.2" x2="351.32" y2="414.14"/><line class="cls-7" x1="333.48" y1="414.14" x2="367.64" y2="414.14"/></g><rect class="cls-5" x="525" y="315" width="150" height="165"/><g class="cls-2"><line class="cls-7" x1="536.57" y1="399.12" x2="551.5" y2="399.12"/><line class="cls-7" x1="536.77" y1="481.08" x2="536.77" y2="355.31"/><line class="cls-7" x1="668.41" y1="355.45" x2="668.41" y2="481.08"/><polyline class="cls-7" points="536.77 348.06 536.77 333.93 668.41 333.93 668.41 348.18"/><polyline class="cls-7" points="667.89 348.18 675.53 348.18 675.53 355.31 536.29 355.31"/><polyline class="cls-7" points="536.29 355.31 529.64 355.31 529.64 348.18 667.89 348.18"/><rect class="cls-7" x="529.64" y="318" width="145.89" height="15.93"/><line class="cls-7" x1="668.41" y1="408.55" x2="536.77" y2="408.55"/><line class="cls-7" x1="658.71" y1="470.6" x2="668.62" y2="470.6"/><line class="cls-7" x1="536.56" y1="470.6" x2="629.5" y2="470.6"/><polygon class="cls-7" points="642.88 397.65 562.39 397.65 562.39 389.69 562.39 363.69 642.88 363.69 642.88 397.65"/><rect class="cls-7" x="571.61" y="372.29" width="27.67" height="17.61"/><rect class="cls-7" x="605.99" y="372.29" width="27.67" height="17.61"/><line class="cls-7" x1="642.78" y1="389.9" x2="562.29" y2="389.9"/><polyline class="cls-7" points="555.03 455.72 555.03 426.79 614.14 426.79 614.14 455.72"/><line class="cls-7" x1="620.85" y1="455.72" x2="548.32" y2="455.72"/><polyline class="cls-7" points="629.65 480.87 629.65 425.34 658.58 425.34 658.58 480.87"/><line class="cls-7" x1="554.4" y1="442.51" x2="613.93" y2="442.51"/><line class="cls-7" x1="584.41" y1="426.94" x2="584.41" y2="442.67"/><rect class="cls-7" x="634.68" y="431.82" width="8.38" height="17.19"/><rect class="cls-7" x="645.16" y="431.82" width="8.38" height="17.19"/><rect class="cls-7" x="634.68" y="458.65" width="8.38" height="17.19"/><rect class="cls-7" x="645.16" y="458.65" width="8.38" height="17.19"/><line class="cls-7" x1="667.83" y1="376.45" x2="656.5" y2="376.45"/><line class="cls-7" x1="545.5" y1="364.5" x2="555.5" y2="364.5"/><line class="cls-7" x1="546" y1="341.5" x2="556" y2="341.5"/><line class="cls-7" x1="536.57" y1="462.96" x2="575.5" y2="462.96"/></g><path class="cls-8" d="M374,127.28v1.39a11.17,11.17,0,0,0,11.16,11.16h47.57c.95,0,1.78.61,1.78,1.31s-.83,1.31-1.78,1.31H423l-1.14.05v0a8.78,8.78,0,0,0-7.7,8.76v.92a8.86,8.86,0,0,0,8.85,8.85h40.64a8.86,8.86,0,0,0,8.85-8.85v-.92a8.86,8.86,0,0,0-8.85-8.85H446.59c-.95,0-1.78-.61-1.78-1.31s.83-1.31,1.78-1.31h34.64a11.17,11.17,0,0,0,11.16-11.16v-1.39a11.17,11.17,0,0,0-11.16-11.16H385.16A11.17,11.17,0,0,0,374,127.28Z"/><g class="cls-2"><line class="cls-3" x1="1050.5" y1="423.47" x2="1050.48" y2="465.48"/><rect class="cls-3" x="924.9" y="438.35" width="14.61" height="14.61" transform="matrix(-1, 0, 0, -1, 1864.16, 891.86)"/><rect class="cls-3" x="929.73" y="443.16" width="5" height="5" transform="translate(1864.21 891.86) rotate(-179.97)"/><rect class="cls-3" x="893" y="438.34" width="14.61" height="14.61" transform="matrix(-1, 0, 0, -1, 1800.35, 891.81)"/><rect class="cls-3" x="897.83" y="443.14" width="5" height="5" transform="translate(1800.41 891.81) rotate(-179.97)"/><rect class="cls-3" x="860.82" y="438.32" width="14.61" height="14.61" transform="translate(1735.99 891.75) rotate(-179.97)"/><rect class="cls-3" x="865.65" y="443.12" width="5" height="5" transform="translate(1736.05 891.75) rotate(-179.97)"/><rect class="cls-3" x="829.29" y="438.3" width="14.61" height="14.61" transform="matrix(-1, 0, 0, -1, 1672.92, 891.7)"/><rect class="cls-3" x="834.12" y="443.1" width="5" height="5" transform="translate(1672.98 891.7) rotate(-179.97)"/><rect class="cls-3" x="797.01" y="438.28" width="14.61" height="14.61" transform="translate(1608.38 891.64) rotate(-179.97)"/><rect class="cls-3" x="801.85" y="443.08" width="5" height="5" transform="translate(1608.43 891.64) rotate(-179.97)"/><path class="cls-3" d="M1003.2,360.53c0-.08,0-.16,0-.25a3.06,3.06,0,1,0-6.11,0v7.53h6.11Z"/><path class="cls-3" d="M995.43,360.52c0-.08,0-.16,0-.25a3.06,3.06,0,1,0-6.11,0v7.53h6.11Z"/><path class="cls-3" d="M1003,331.53c0-.08,0-.16,0-.24a2.57,2.57,0,1,0-5.06,0v7.46H1003Z"/><path class="cls-3" d="M996.44,331.52c0-.08,0-.16,0-.24a2.57,2.57,0,1,0-5.06,0v7.46h5.06Z"/><path class="cls-3" d="M986.83,376.13c.24-.06,18.92,0,18.92,0v-22l-8.87-8.15L987,354.09Z"/><path class="cls-3" d="M987,372.09h18.55"/><line class="cls-3" x1="1005.33" y1="354.53" x2="987.15" y2="354.52"/><polygon class="cls-3" points="1009.65 259.12 1002.78 259.12 1006.17 253.93 1009.65 259.12"/><polyline class="cls-3" points="1003.94 259.12 1003.94 263.86 1008.48 263.86 1008.49 259.44"/><polygon class="cls-3" points="1018.77 259.13 1011.9 259.12 1015.29 253.93 1018.77 259.13"/><polyline class="cls-3" points="1013.06 259.12 1013.06 263.86 1017.61 263.87 1017.61 259.45"/><polygon class="cls-3" points="1000.94 259.12 994.07 259.11 997.46 253.92 1000.94 259.12"/><polyline class="cls-3" points="995.23 259.11 995.23 263.85 999.78 263.85 999.78 259.44"/><polygon class="cls-3" points="991.3 259.11 984.43 259.11 987.82 253.92 991.3 259.11"/><polyline class="cls-3" points="985.59 259.11 985.59 263.85 990.14 263.85 990.14 259.43"/><path class="cls-3" d="M1047.1,320.28h-2.65V311.5h-3.16v8.77h-4.07V311.5h-3.16v8.77H1030V311.5h-3.16v8.77h-4.07v-8.77h-3.16v8.77h-4.07v-8.77h-3.16v8.77h-4.07v-8.77h-3.16v8.77h-4.07v-8.77h-3.16v8.77h-4.07v-8.77h-3.16v8.77H986.6v-8.77h-3.16v8.77h-4.07v-8.77h-3.16v8.77h-4.07v-8.77H969v8.77h-4.07v-8.77h-3.16v8.77h-4.07v-8.77h-3.16v8.77h-4.07v-8.77h-3.16v8.77h-4.07v-8.77h-3.16v8.77H938"/><path class="cls-3" d="M1005.17,329.24a8.74,8.74,0,0,0-16.08.06V341h16.08Z"/><polyline class="cls-3" points="1025.97 305.01 1025.98 277.42 1033.66 277.43 1033.65 295.08"/><polyline class="cls-3" points="1033.66 277.43 1035.65 270.35 1022.39 270.34 1025.98 277.42"/><path class="cls-3" d="M1035.66,252.6s-2.87-6.33-6.58-6.3c-5.14,0-6.54,6.53-6.54,6.53"/><path class="cls-3" d="M1031.09,246.84s-1.25-2.81-2.37-2.81-2.19,2.81-2.19,2.81"/><polyline class="cls-3" points="954.26 295.36 954.27 277.38 946.6 277.38 946.58 304.54"/><polyline class="cls-3" points="946.6 277.38 944.62 270.29 957.87 270.3 954.27 277.38"/><path class="cls-3" d="M944.62,270.29V252.54l13.28.09v17.75s64.47.12,64.47,0V252.67l13.28-.07v17.75"/><path class="cls-3" d="M944.63,252.54s2.88-6.32,6.58-6.29c5.14,0,6.53,6.54,6.53,6.54"/><path class="cls-3" d="M949.2,246.79s1.25-2.81,2.37-2.81,2.19,2.81,2.19,2.81"/><rect class="cls-3" x="950.48" y="235" width="2.33" height="6.45" rx="0.46" ry="0.46"/><rect class="cls-3" x="971.46" y="235.01" width="2.33" height="6.45" rx="0.46" ry="0.46"/><rect class="cls-3" x="950.48" y="241.26" width="2.33" height="2.95" rx="0.46" ry="0.46"/><polyline class="cls-3" points="781.32 465.24 781.34 440.23 767.5 440.22 767.48 465.23"/><polyline class="cls-3" points="767.5 440.22 760.97 424.84 784.88 424.85 781.34 440.23"/><polyline class="cls-3" points="760.97 424.84 760.99 392.82 784.93 392.98 784.92 425 977.99 425.11"/><path class="cls-3" d="M761,392.82s5.19-11.41,11.88-11.34c9.26.09,11.78,11.79,11.78,11.79"/><path class="cls-3" d="M766.22,385.2a10.36,10.36,0,0,0-1.66-.15c-6.69-.06-11.88,11.34-11.88,11.34h8"/><path class="cls-3" d="M769.24,382.44s2.26-5.07,4.27-5.07,3.94,5.08,3.94,5.08"/><rect class="cls-3" x="771.54" y="361.18" width="4.2" height="11.64" rx="0.46" ry="0.46"/><rect class="cls-3" x="771.54" y="372.47" width="4.2" height="5.33" rx="0.46" ry="0.46"/><path class="cls-3" d="M953.66,392.94s5.19-11.41,11.88-11.34c9.26.09,11.78,11.79,11.78,11.79"/><path class="cls-3" d="M961.91,382.56s2.26-5.07,4.27-5.07,3.94,5.08,3.94,5.08"/><path class="cls-3" d="M760.29,387.16s2.26-5.07,4.27-5.07c1,0,2,1.22,2.68,2.46"/><rect class="cls-3" x="762.59" y="365.9" width="4.2" height="11.64" rx="0.46" ry="0.46"/><rect class="cls-3" x="762.59" y="377.18" width="4.2" height="5.33" rx="0.46" ry="0.46"/><path class="cls-3" d="M982.6,252.57h-20s3.58-6.4,9.65-6.4C979.36,246.16,982.6,252.57,982.6,252.57Z"/><path class="cls-3" d="M976.52,247.09c-.17-.26-1.87-3.59-3.92-3.58-2.6,0-3.88,3.44-3.88,3.44"/><path class="cls-3" d="M974.72,244.49s.18-2.92-2-2.92-2.33,2.37-2.24,2.87"/><line class="cls-3" x1="982.66" y1="255.52" x2="962.77" y2="255.51"/><polyline class="cls-3" points="1022.26 263.87 982.65 263.84 962.62 263.83 958.18 263.83"/><line class="cls-3" x1="982.6" y1="252.57" x2="982.58" y2="295.24"/><line class="cls-3" x1="962.53" y1="252.56" x2="962.51" y2="295.14"/><line class="cls-3" x1="978.02" y1="263.75" x2="978" y2="294.93"/><line class="cls-3" x1="968.34" y1="263.74" x2="968.32" y2="294.92"/><line class="cls-3" x1="957.9" y1="270.38" x2="957.88" y2="295.02"/><polyline class="cls-3" points="752.69 396.4 752.67 427.16 762.26 427.16"/><polyline class="cls-3" points="752.67 427.16 759.85 440.21 767.01 440.22"/><line class="cls-3" x1="783.53" y1="430.11" x2="955.67" y2="430.08"/><line class="cls-3" x1="760.12" y1="458.82" x2="1050.87" y2="458.99"/><line class="cls-3" x1="759.83" y1="465.23" x2="752" y2="480.13"/><line class="cls-3" x1="767.48" y1="465.23" x2="760.34" y2="480.37"/><polygon class="cls-3" points="938.22 344.52 931.49 352.33 938.21 352.33 938.22 344.52"/><polyline class="cls-3" points="931.49 352.33 931.47 379.23 938.38 379.24"/><polyline class="cls-3" points="931.47 379.23 935.1 390.69 938.19 390.69"/><line class="cls-3" x1="935.1" y1="390.68" x2="935.08" y2="415.04"/><line class="cls-3" x1="785.13" y1="414.77" x2="953.97" y2="414.87"/><path class="cls-3" d="M977.59,425.11,974.69,440H961.24s-6.54-11.82-7.61-15l0-32,23.95.16Z"/><line class="cls-3" x1="961.24" y1="439.96" x2="961.23" y2="458.68"/><line class="cls-3" x1="961.61" y1="443.96" x2="975.24" y2="443.96"/><path class="cls-3" d="M987.39,480.51c-1.09-.73-12.53-15.28-12.53-15.28V440"/><path class="cls-3" d="M1063,480.37c-.91-.55-12.15-14.89-12.15-14.89l-291-.25v-25"/><polygon class="cls-3" points="1050.5 423.47 1052.48 413.05 1034.95 413.04 1040.35 423.46 1050.5 423.47"/><path class="cls-3" d="M1052.68,387.2s-3.8-8.37-8.7-8.33c-6.79.06-8.65,8.64-8.65,8.64"/><path class="cls-3" d="M1046.64,379.58s-1.65-3.72-3.13-3.72-2.9,3.72-2.9,3.72"/><rect class="cls-3" x="1041.88" y="363.99" width="3.08" height="8.54" rx="0.46" ry="0.46" transform="translate(2086.62 737.12) rotate(-179.97)"/><rect class="cls-3" x="1041.87" y="372.27" width="3.08" height="3.91" rx="0.46" ry="0.46" transform="translate(2086.61 749.05) rotate(-179.97)"/><polyline class="cls-3" points="1035.1 413.04 1035.11 387.3 1052.68 387.2 1052.66 412.94"/><polyline class="cls-3" points="1040.48 458.91 1040.5 426.92 1040.5 423.46"/><line class="cls-3" x1="1050.86" y1="427.1" x2="1040.5" y2="427.1"/><line class="cls-3" x1="1035.61" y1="414.88" x2="978.12" y2="414.84"/><line class="cls-3" x1="978.37" y1="418.4" x2="1037.13" y2="418.44"/><line class="cls-3" x1="1041.76" y1="304.6" x2="942.26" y2="304.54"/><path class="cls-9" d="M1037.46,295.18h-8.69v9.23s1.36,3.26,4.34,3.26,4.35-3.46,4.35-3.46Z"/><path class="cls-3" d="M1046.29,307.27c-3,0-4.75-2.85-4.75-2.85v-9.23h5.06l0,83.89"/><path class="cls-9" d="M1024.29,295.17h-8.69v9.23s1.36,3.26,4.34,3.26,4.35-3.46,4.35-3.46Z"/><path class="cls-9" d="M1011.18,295.17h-8.69v9.23s1.36,3.26,4.34,3.26,4.35-3.46,4.35-3.46Z"/><path class="cls-9" d="M998,295.16h-8.69v9.23s1.36,3.26,4.34,3.26,4.35-3.46,4.35-3.46Z"/><path class="cls-9" d="M984.07,295.15h-8.69v9.23s1.36,3.26,4.34,3.26,4.35-3.46,4.35-3.46Z"/><path class="cls-9" d="M971,295.14h-8.69v9.23s1.36,3.26,4.34,3.26,4.35-3.46,4.35-3.46Z"/><path class="cls-9" d="M957.79,295.14H949.1v9.23s1.36,3.26,4.34,3.26,4.35-3.46,4.35-3.46Z"/><path class="cls-3" d="M938.36,307.62c3,0,4.35-3.46,4.35-3.46v-9h-4.52l-.06,108.3"/><path class="cls-9" d="M948.23,403.43H937v11.94s1.75,4.21,5.62,4.22,5.62-4.47,5.62-4.47Z"/><path class="cls-9" d="M915.57,403.41H904.34v11.94s1.75,4.21,5.62,4.22,5.62-4.47,5.62-4.47Z"/><path class="cls-9" d="M931.43,403.42H920.2v11.94s1.75,4.21,5.62,4.22,5.62-4.47,5.62-4.47Z"/><path class="cls-9" d="M899,403.4H887.75v11.94s1.75,4.21,5.62,4.22,5.62-4.47,5.62-4.47Z"/><path class="cls-9" d="M882.65,403.39H871.42v11.94s1.75,4.21,5.62,4.22,5.62-4.47,5.62-4.47Z"/><path class="cls-9" d="M866.06,403.38H854.83v11.94s1.75,4.21,5.62,4.22,5.62-4.47,5.62-4.47Z"/><path class="cls-9" d="M850.61,403.37H839.37V415.3s1.75,4.21,5.62,4.22S850.6,415,850.6,415Z"/><path class="cls-9" d="M834,403.36H822.78v11.94s1.75,4.21,5.62,4.22S834,415,834,415Z"/><path class="cls-9" d="M817.87,403.35H806.63v11.94s1.75,4.21,5.62,4.22,5.62-4.47,5.62-4.47Z"/><path class="cls-9" d="M801.28,403.34H790v11.94s1.75,4.21,5.62,4.22,5.62-4.47,5.62-4.47Z"/><rect class="cls-3" x="964.21" y="361.3" width="4.2" height="11.64" rx="0.46" ry="0.46"/><rect class="cls-3" x="964.21" y="372.58" width="4.2" height="5.33" rx="0.46" ry="0.46"/><rect class="cls-3" x="1027.49" y="235.05" width="2.33" height="6.45" rx="0.46" ry="0.46" transform="translate(2057.18 477.14) rotate(-179.97)"/><rect class="cls-3" x="1027.49" y="241.3" width="2.33" height="2.95" rx="0.46" ry="0.46" transform="translate(2057.17 486.16) rotate(-179.97)"/></g><g class="cls-2"><line class="cls-3" x1="986.29" y1="462.46" x2="972.34" y2="462.46"/><line class="cls-3" x1="974.68" y1="446.65" x2="963.52" y2="446.64"/><line class="cls-3" x1="1001.65" y1="446.66" x2="981.19" y2="446.65"/></g><g class="cls-2"><line class="cls-3" x1="980.87" y1="371.41" x2="966.93" y2="371.4"/><line class="cls-3" x1="969.26" y1="355.6" x2="958.1" y2="355.59"/><line class="cls-3" x1="996.23" y1="355.61" x2="975.77" y2="355.6"/></g></svg>